<?xml version="1.0" encoding="UTF-8"?>
<svg width="512" height="512" viewBox="0 0 512 512" fill="none" xmlns="http://www.w3.org/2000/svg">
  <!-- Main circle (poker chip) -->
  <circle cx="256" cy="256" r="240" fill="#673ab7"/>
  
  <!-- Inner decorative rings -->
  <circle cx="256" cy="256" r="200" stroke="white" stroke-width="8" stroke-opacity="0.3"/>
  <circle cx="256" cy="256" r="160" stroke="white" stroke-width="8" stroke-opacity="0.3"/>
  
  <!-- Decorative dots around the edge -->
  <circle cx="256" cy="16" r="12" fill="white" fill-opacity="0.8"/>
  <circle cx="256" cy="496" r="12" fill="white" fill-opacity="0.8"/>
  <circle cx="16" cy="256" r="12" fill="white" fill-opacity="0.8"/>
  <circle cx="496" cy="256" r="12" fill="white" fill-opacity="0.8"/>
  
  <!-- Diagonal dots -->
  <circle cx="96" cy="96" r="12" fill="white" fill-opacity="0.8"/>
  <circle cx="416" cy="416" r="12" fill="white" fill-opacity="0.8"/>
  <circle cx="96" cy="416" r="12" fill="white" fill-opacity="0.8"/>
  <circle cx="416" cy="96" r="12" fill="white" fill-opacity="0.8"/>
  
  <!-- Letter C in the middle -->
  <path
    d="M320 176C320 176 280 156 240 156C200 156 160 176 160 256C160 336 200 356 240 356C280 356 320 336 320 336"
    stroke="white"
    stroke-width="32"
    stroke-linecap="round"
  />
</svg> 