<svg width="588" height="173" viewBox="0 0 588 173" fill="none" xmlns="http://www.w3.org/2000/svg">
<circle cx="88.4998" cy="87.6755" r="82.9363" fill="#9A67F6"/>
<path fill-rule="evenodd" clip-rule="evenodd" d="M95.6869 170.305C138.126 166.662 171.436 131.059 171.436 87.6755C171.436 67.0106 163.878 48.1108 151.376 33.5897C148.735 33.3153 146.054 33.1746 143.34 33.1746C100.9 33.1746 66.4966 67.5784 66.4966 110.018C66.4966 134.456 77.9051 156.23 95.6869 170.305Z" fill="#9263E7"/>
<path fill-rule="evenodd" clip-rule="evenodd" d="M140.079 90.905C140.997 98.8732 139.037 107.2 132.688 115.603L162.464 134.773C150.79 153.068 132.515 166.742 110.995 172.438L103.213 142.854H74.9582L67.3665 172.787C45.7239 167.431 27.2517 154.036 15.301 135.952L44.558 116.749C44.2904 116.441 44.0296 116.121 43.7761 115.789C37.2298 107.211 35.2675 98.7099 36.2819 90.5867L0.942016 92.26C0.863806 90.7417 0.824219 89.2133 0.824219 87.6755C0.824219 66.4071 8.39724 46.9074 20.9939 31.7259L53.9642 59.1744C59.4975 53.443 65.5825 48.3476 71.0894 44.0999L56.3147 6.09594C66.279 2.16157 77.1369 0 88.4998 0C99.64 0 110.295 2.0777 120.098 5.86674L105.234 44.1003C110.889 48.4623 117.154 53.718 122.804 59.6386L156.659 32.523C168.864 47.5872 176.175 66.7775 176.175 87.6755C176.175 89.5611 176.116 91.4327 175.999 93.2887L140.079 90.905Z" fill="white"/>
<path fill-rule="evenodd" clip-rule="evenodd" d="M132.688 115.603C139.037 107.2 140.997 98.8732 140.079 90.905L175.999 93.2886C176.116 91.4327 176.175 89.5611 176.175 87.6755C176.175 67.7412 169.523 49.3607 158.316 34.6332C157.15 34.4027 155.973 34.1986 154.788 34.0216L122.804 59.6386C117.154 53.718 110.889 48.4622 105.234 44.1003L105.647 43.0384C82.2773 56.218 66.4966 81.2749 66.4966 110.018C66.4966 122.36 69.4063 134.022 74.5772 144.357L74.9584 142.854H103.214L110.995 172.438C132.515 166.742 150.79 153.068 162.464 134.773L132.688 115.603Z" fill="#EEEEEE"/>
<path fill-rule="evenodd" clip-rule="evenodd" d="M88.1615 134.052H80.0372L82.4068 124.235L84.4379 110.018C83.0838 115.095 60.4033 124.235 50.5863 111.372C28.6512 82.6292 67.5118 54.9053 82.7906 44.0052C85.4289 42.123 87.364 40.7424 88.1615 39.9449C88.9591 40.7424 90.8942 42.123 93.5325 44.0052C108.811 54.9053 147.672 82.6292 125.737 111.372C115.92 124.235 93.2393 115.095 91.8852 110.018L93.9163 124.235L96.2859 134.052H88.1615Z" fill="#CEBCEE"/>
<path fill-rule="evenodd" clip-rule="evenodd" d="M66.8947 117.888C66.6315 115.3 66.4966 112.675 66.4966 110.017C66.4966 84.3076 79.1227 61.5468 98.5125 47.5974C115.715 60.2401 145.565 85.3896 125.737 111.372C115.92 124.235 93.2391 115.095 91.8851 110.017L93.9162 124.235L96.2858 134.052H88.1614H80.037L82.4066 124.235L84.4377 110.017C83.642 113.001 75.4815 117.388 66.8947 117.888Z" fill="#C5B2E5"/>
<path d="M267.887 132.256C258.673 132.256 250.757 130.414 244.14 126.728C237.606 122.959 232.58 117.681 229.062 110.896C225.544 104.028 223.785 95.9445 223.785 86.6466C223.785 77.3487 225.544 69.3073 229.062 62.5224C232.58 55.7374 237.606 50.5021 244.14 46.8165C250.757 43.0471 258.673 41.1624 267.887 41.1624C272.494 41.1624 277.017 41.7487 281.457 42.9214C285.896 44.0941 289.792 45.7694 293.142 47.9473C295.32 49.3713 296.618 51.0885 297.037 53.0988C297.456 55.0254 297.205 56.8264 296.283 58.5016C295.362 60.0932 293.98 61.1821 292.137 61.7685C290.294 62.2711 288.242 61.7685 285.98 60.2607C283.384 58.5854 280.577 57.3708 277.562 56.6169C274.546 55.8631 271.489 55.4861 268.39 55.4861C259.427 55.4861 252.6 58.2085 247.909 63.6532C243.218 69.0141 240.873 76.6786 240.873 86.6466C240.873 96.6146 243.218 104.321 247.909 109.766C252.6 115.21 259.427 117.933 268.39 117.933C271.573 117.933 274.714 117.556 277.813 116.802C280.912 115.964 283.844 114.708 286.608 113.032C288.87 111.608 290.88 111.148 292.64 111.65C294.399 112.153 295.697 113.2 296.535 114.792C297.456 116.299 297.749 117.975 297.414 119.817C297.079 121.66 295.948 123.294 294.022 124.718C290.671 127.147 286.65 129.032 281.96 130.372C277.352 131.628 272.662 132.256 267.887 132.256ZM318.358 132.005C313.164 132.005 310.568 129.325 310.568 123.964V49.3294C310.568 44.0522 313.164 41.4136 318.358 41.4136C323.635 41.4136 326.274 44.0522 326.274 49.3294V78.4795C328.368 75.1289 331.174 72.616 334.692 70.9407C338.21 69.1817 342.105 68.3021 346.377 68.3021C360.868 68.3021 368.114 76.7205 368.114 93.5572V123.964C368.114 129.325 365.517 132.005 360.324 132.005C355.047 132.005 352.408 129.325 352.408 123.964V94.3111C352.408 89.5365 351.487 86.0602 349.644 83.8824C347.885 81.7045 345.121 80.6155 341.351 80.6155C336.744 80.6155 333.059 82.0814 330.294 85.0132C327.614 87.8612 326.274 91.6725 326.274 96.4471V123.964C326.274 129.325 323.635 132.005 318.358 132.005ZM391.857 56.9939C388.925 56.9939 386.621 56.2819 384.946 54.8579C383.354 53.3501 382.559 51.2979 382.559 48.7012C382.559 46.0207 383.354 43.9685 384.946 42.5445C386.621 41.1205 388.925 40.4085 391.857 40.4085C398.055 40.4085 401.154 43.1727 401.154 48.7012C401.154 54.2296 398.055 56.9939 391.857 56.9939ZM391.857 131.88C389.344 131.88 387.417 131.126 386.077 129.618C384.737 128.11 384.066 126.016 384.066 123.336V77.2231C384.066 71.5271 386.663 68.6791 391.857 68.6791C397.134 68.6791 399.772 71.5271 399.772 77.2231V123.336C399.772 126.016 399.102 128.11 397.762 129.618C396.422 131.126 394.453 131.88 391.857 131.88ZM423.882 154.622C418.688 154.622 416.092 151.983 416.092 146.706V76.4692C416.092 71.192 418.647 68.5534 423.756 68.5534C428.95 68.5534 431.546 71.192 431.546 76.4692V79.1078C433.305 75.8409 435.944 73.2442 439.462 71.3176C442.98 69.3073 447.001 68.3021 451.524 68.3021C456.885 68.3021 461.576 69.6005 465.597 72.1972C469.701 74.7939 472.884 78.4795 475.146 83.2541C477.407 87.9449 478.538 93.5991 478.538 100.216C478.538 106.75 477.407 112.446 475.146 117.304C472.884 122.079 469.743 125.765 465.722 128.361C461.702 130.958 456.969 132.256 451.524 132.256C447.168 132.256 443.231 131.335 439.713 129.492C436.279 127.566 433.64 125.011 431.798 121.828V146.706C431.798 151.983 429.159 154.622 423.882 154.622ZM447.127 120.32C451.817 120.32 455.587 118.645 458.435 115.294C461.283 111.86 462.707 106.834 462.707 100.216C462.707 93.5153 461.283 88.5313 458.435 85.2645C455.587 81.9139 451.817 80.2386 447.127 80.2386C442.436 80.2386 438.666 81.9139 435.818 85.2645C432.97 88.5313 431.546 93.5153 431.546 100.216C431.546 106.834 432.97 111.86 435.818 115.294C438.666 118.645 442.436 120.32 447.127 120.32ZM512.414 132.256C498.425 132.256 491.431 124.424 491.431 108.76V49.3294C491.431 44.0522 494.028 41.4136 499.221 41.4136C504.498 41.4136 507.137 44.0522 507.137 49.3294V108.007C507.137 115.545 510.278 119.315 516.56 119.315C517.23 119.315 517.859 119.315 518.445 119.315C519.031 119.231 519.618 119.147 520.204 119.064C521.377 118.896 522.172 119.231 522.591 120.069C523.01 120.823 523.22 122.414 523.22 124.843C523.22 126.937 522.801 128.571 521.963 129.744C521.125 130.916 519.743 131.628 517.817 131.88C516.058 132.131 514.257 132.256 512.414 132.256ZM545.54 154.622C542.692 154.622 540.723 153.575 539.634 151.48C538.545 149.386 538.587 146.999 539.76 144.319L546.922 128.487L525.436 78.9821C524.263 76.2179 524.263 73.7887 525.436 71.6946C526.609 69.6005 528.912 68.5534 532.347 68.5534C534.273 68.5534 535.823 69.0141 536.996 69.9355C538.168 70.7732 539.215 72.4066 540.137 74.8358L555.214 112.53L570.669 74.7101C571.59 72.3647 572.679 70.7732 573.936 69.9355C575.192 69.0141 576.868 68.5534 578.962 68.5534C581.642 68.5534 583.527 69.6005 584.616 71.6946C585.705 73.7887 585.663 76.176 584.49 78.8565L553.958 148.591C552.869 150.936 551.696 152.528 550.44 153.365C549.183 154.203 547.55 154.622 545.54 154.622Z" fill="white"/>
</svg>
