<svg width="291" height="300" version="1.1" xmlns="http://www.w3.org/2000/svg" desc="Created with imagetracer.js version 1.2.6" ><path fill="rgb(0,0,0)" stroke="rgb(0,0,0)" stroke-width="1" opacity="0.011764705882352941" d="M 0 0 L 291 0 L 291 300 L 0 300 L 0 0 Z M 137 7 L 136 8 L 127 8 L 111 11 L 95 16 Q 70 25 53 41 Q 28 62 14 93 L 5 121 L 3 132 L 3 143 L 2 144 L 3 169 L 6 185 L 11 201 Q 20 224 35 242 Q 51 261 74 274 Q 88 283 107 288 L 135 293 L 166 292 L 185 288 L 197 284 Q 221 274 240 258 Q 260 240 273 216 L 283 191 L 288 166 L 288 136 L 283 110 Q 273 77 252 55 Q 231 30 199 17 L 184 12 L 165 8 L 137 7 Z " /><path fill="rgb(1,0,0)" stroke="rgb(1,0,0)" stroke-width="1" opacity="0.996078431372549" d="M 136.5 7 L 153.5 7 L 154 9 L 137.5 9 L 136.5 7 Z " /><path fill="rgb(1,0,0)" stroke="rgb(1,0,0)" stroke-width="1" opacity="0.996078431372549" d="M 126 8 L 132 8.5 L 126 10 L 126 8 Z " /><path fill="rgb(1,0,0)" stroke="rgb(1,0,0)" stroke-width="1" opacity="0.996078431372549" d="M 159.5 8 L 165 8.5 L 161.5 10 L 159.5 8 Z " /><path fill="rgb(1,0,0)" stroke="rgb(1,0,0)" stroke-width="1" opacity="0.996078431372549" d="M 120 9 L 124 9.5 L 120 11 L 120 9 Z " /><path fill="rgb(1,0,0)" stroke="rgb(1,0,0)" stroke-width="1" opacity="0.996078431372549" d="M 167.5 9 Q 172.3 7.7 171 11 Q 167.2 11.8 167.5 9 Z " /><path fill="rgb(1,0,0)" stroke="rgb(1,0,0)" stroke-width="1" opacity="0.996078431372549" d="M 115 10 L 118 10.5 L 115 12 L 115 10 Z " /><path fill="rgb(1,0,0)" stroke="rgb(1,0,0)" stroke-width="1" opacity="0.996078431372549" d="M 173.5 10 Q 176.8 8.9 176 11.5 L 177.5 11 L 180 11.5 L 177 12 L 176.5 40 L 176 12 L 173.5 10 Z " /><path fill="rgb(1,0,0)" stroke="rgb(1,0,0)" stroke-width="1" opacity="0.996078431372549" d="M 110.5 11 L 113 11.5 L 110.5 12 L 110.5 11 Z " /><path fill="rgb(1,0,0)" stroke="rgb(1,0,0)" stroke-width="1" opacity="0.996078431372549" d="M 181.5 12 L 184 12.5 L 181.5 13 L 181.5 12 Z " /><path fill="rgb(1,0,0)" stroke="rgb(1,0,0)" stroke-width="1" opacity="0.996078431372549" d="M 103.5 13 L 106 13.5 L 103.5 14 L 103.5 13 Z " /><path fill="rgb(1,0,0)" stroke="rgb(1,0,0)" stroke-width="1" opacity="0.996078431372549" d="M 94.5 16 L 96 16.5 L 92.5 18 L 92.5 17 L 94.5 16 Z " /><path fill="rgb(1,0,0)" stroke="rgb(1,0,0)" stroke-width="1" opacity="0.996078431372549" d="M 197.5 17 L 201 18.5 L 199.5 19 L 197.5 17 Z " /><path fill="rgb(1,0,0)" stroke="rgb(1,0,0)" stroke-width="1" opacity="0.996078431372549" d="M 204.5 20 L 215 25.5 L 213.5 25 L 204.5 21 L 204.5 20 Z " /><path fill="rgb(1,0,0)" stroke="rgb(1,0,0)" stroke-width="1" opacity="0.996078431372549" d="M 77.5 24 L 76.5 26 L 72.5 28 L 73.5 26 L 77.5 24 Z " /><path fill="rgb(1,0,0)" stroke="rgb(1,0,0)" stroke-width="1" opacity="0.996078431372549" d="M 218.5 27 L 219.5 29 L 218.5 27 Z " /><path fill="rgb(1,0,0)" stroke="rgb(1,0,0)" stroke-width="1" opacity="0.996078431372549" d="M 70.5 28 L 69.5 30 L 70.5 28 Z " /><path fill="rgb(1,0,0)" stroke="rgb(1,0,0)" stroke-width="1" opacity="0.996078431372549" d="M 221.5 29 L 229 34.5 L 226.5 33 Q 221.9 31.8 221.5 29 Z " /><path fill="rgb(1,0,0)" stroke="rgb(1,0,0)" stroke-width="1" opacity="0.996078431372549" d="M 67.5 30 L 66.5 32 L 67.5 30 Z " /><path fill="rgb(1,0,0)" stroke="rgb(1,0,0)" stroke-width="1" opacity="0.996078431372549" d="M 64.5 32 L 63.5 34 L 64.5 32 Z " /><path fill="rgb(1,0,0)" stroke="rgb(1,0,0)" stroke-width="1" opacity="0.996078431372549" d="M 61.5 34 L 59.5 37 L 61.5 34 Z " /><path fill="rgb(1,0,0)" stroke="rgb(1,0,0)" stroke-width="1" opacity="0.996078431372549" d="M 230.5 35 L 232.5 38 L 230.5 35 Z " /><path fill="rgb(1,0,0)" stroke="rgb(1,0,0)" stroke-width="1" opacity="0.996078431372549" d="M 57.5 37 L 55.5 40 L 57.5 37 Z " /><path fill="rgb(1,0,0)" stroke="rgb(1,0,0)" stroke-width="1" opacity="0.996078431372549" d="M 234.5 38 L 238.5 43 L 234.5 38 Z " /><path fill="rgb(1,0,0)" stroke="rgb(1,0,0)" stroke-width="1" opacity="0.996078431372549" d="M 52.5 41 L 41 53.5 L 41.5 55 L 40.5 54 L 36 57.5 L 52.5 41 Z " /><path fill="rgb(1,0,0)" stroke="rgb(1,0,0)" stroke-width="1" opacity="0.996078431372549" d="M 240.5 43 L 251.5 55 L 249.5 55 L 248 54.5 L 250 53.5 L 241 46 L 240.5 43 Z " /><path fill="rgb(1,0,0)" stroke="rgb(1,0,0)" stroke-width="1" opacity="0.996078431372549" d="M 138.5 46 L 153 46.5 L 138.5 47 L 138.5 46 Z " /><path fill="rgb(1,0,0)" stroke="rgb(1,0,0)" stroke-width="1" opacity="0.996078431372549" d="M 146.5 51 L 147 52.5 Q 145.3 55.8 138.5 54 L 138.5 53 Q 146.6 54.7 146.5 51 Z " /><path fill="rgb(1,0,0)" stroke="rgb(1,0,0)" stroke-width="1" opacity="0.996078431372549" d="M 251.5 56 L 258 61.5 L 257.5 63 L 261 65.5 L 258.5 64 L 256 62.5 Q 258.8 60.7 254.5 59 L 251.5 56 Z " /><path fill="rgb(1,0,0)" stroke="rgb(1,0,0)" stroke-width="1" opacity="0.996078431372549" d="M 35.5 59 L 37 59.5 L 32.5 63 L 35.5 59 Z " /><path fill="rgb(1,0,0)" stroke="rgb(1,0,0)" stroke-width="1" opacity="0.996078431372549" d="M 194.5 63 L 196 65.5 L 195 65.5 L 194.5 63 Z " /><path fill="rgb(1,0,0)" stroke="rgb(1,0,0)" stroke-width="1" opacity="0.996078431372549" d="M 31.5 64 L 33 64.5 L 29.5 67 L 31.5 64 Z " /><path fill="rgb(1,0,0)" stroke="rgb(1,0,0)" stroke-width="1" opacity="0.996078431372549" d="M 64.5 67 L 65.5 69 L 64.5 67 Z " /><path fill="rgb(1,0,0)" stroke="rgb(1,0,0)" stroke-width="1" opacity="0.996078431372549" d="M 226.5 67 L 225.5 69 L 226.5 67 Z " /><path fill="rgb(1,0,0)" stroke="rgb(1,0,0)" stroke-width="1" opacity="0.996078431372549" d="M 260.5 67 L 263 68.5 L 261.5 68 L 260.5 67 Z " /><path fill="rgb(1,0,0)" stroke="rgb(1,0,0)" stroke-width="1" opacity="0.996078431372549" d="M 28.5 68 L 30 68.5 L 27.5 70 L 28.5 68 Z " /><path fill="rgb(1,0,0)" stroke="rgb(1,0,0)" stroke-width="1" opacity="0.996078431372549" d="M 224.5 70 L 225 72.5 L 224 72.5 L 224.5 70 Z " /><path fill="rgb(1,0,0)" stroke="rgb(1,0,0)" stroke-width="1" opacity="0.996078431372549" d="M 262.5 70 L 265 71.5 L 263.5 71 L 262.5 70 Z " /><path fill="rgb(1,0,0)" stroke="rgb(1,0,0)" stroke-width="1" opacity="0.996078431372549" d="M 26.5 71 L 28 71.5 L 25.5 73 L 26.5 71 Z " /><path fill="rgb(1,0,0)" stroke="rgb(1,0,0)" stroke-width="1" opacity="0.996078431372549" d="M 87.5 72 L 86.5 74 L 87.5 72 Z " /><path fill="rgb(1,0,0)" stroke="rgb(1,0,0)" stroke-width="1" opacity="0.996078431372549" d="M 264.5 73 L 267 74.5 L 265.5 74 L 264.5 73 Z " /><path fill="rgb(1,0,0)" stroke="rgb(1,0,0)" stroke-width="1" opacity="0.996078431372549" d="M 24.5 74 L 26 74.5 L 23.5 76 L 24.5 74 Z " /><path fill="rgb(1,0,0)" stroke="rgb(1,0,0)" stroke-width="1" opacity="0.996078431372549" d="M 79.5 75 L 76.5 79 L 79.5 75 Z " /><path fill="rgb(1,0,0)" stroke="rgb(1,0,0)" stroke-width="1" opacity="0.996078431372549" d="M 90.5 75 L 89.5 77 L 90.5 75 Z " /><path fill="rgb(1,0,0)" stroke="rgb(1,0,0)" stroke-width="1" opacity="0.996078431372549" d="M 82.5 76 L 81.5 78 L 82.5 76 Z " /><path fill="rgb(1,0,0)" stroke="rgb(1,0,0)" stroke-width="1" opacity="0.996078431372549" d="M 201.5 76 L 202.5 78 L 201.5 76 Z " /><path fill="rgb(1,0,0)" stroke="rgb(1,0,0)" stroke-width="1" opacity="0.996078431372549" d="M 266.5 76 L 269 77.5 L 270 79.5 L 268.5 79 L 267 78.5 L 267.5 77 L 266.5 76 Z " /><path fill="rgb(1,0,0)" stroke="rgb(1,0,0)" stroke-width="1" opacity="0.996078431372549" d="M 22.5 77 L 24 77.5 L 22 78.5 L 22.5 80 L 21 80 Q 22.5 83.7 19.5 83 L 20 81.5 L 22.5 77 Z " /><path fill="rgb(1,0,0)" stroke="rgb(1,0,0)" stroke-width="1" opacity="0.996078431372549" d="M 85.5 79 L 83.5 82 L 85.5 79 Z " /><path fill="rgb(1,0,0)" stroke="rgb(1,0,0)" stroke-width="1" opacity="0.996078431372549" d="M 214.5 79 L 214 80.5 L 218 85.5 L 213 81.5 L 214.5 79 Z " /><path fill="rgb(1,0,0)" stroke="rgb(1,0,0)" stroke-width="1" opacity="0.996078431372549" d="M 207.5 81 L 214.5 89 L 207.5 81 Z " /><path fill="rgb(1,0,0)" stroke="rgb(1,0,0)" stroke-width="1" opacity="0.996078431372549" d="M 222.5 87 L 223.5 89 L 222.5 87 Z " /><path fill="rgb(1,0,0)" stroke="rgb(1,0,0)" stroke-width="1" opacity="0.996078431372549" d="M 76.5 88 L 74.5 91 L 76.5 88 Z " /><path fill="rgb(1,0,0)" stroke="rgb(1,0,0)" stroke-width="1" opacity="0.996078431372549" d="M 15 90 L 17 90.5 L 14.5 94 L 14 92.5 L 15 90 Z " /><path fill="rgb(1,0,0)" stroke="rgb(1,0,0)" stroke-width="1" opacity="0.996078431372549" d="M 138.5 91 L 141 91.5 L 138.5 92 L 138.5 91 Z " /><path fill="rgb(1,0,0)" stroke="rgb(1,0,0)" stroke-width="1" opacity="0.996078431372549" d="M 225.5 91 L 226.5 93 L 225.5 91 Z " /><path fill="rgb(1,0,0)" stroke="rgb(1,0,0)" stroke-width="1" opacity="0.996078431372549" d="M 217.5 92 L 218.5 94 L 217.5 92 Z " /><path fill="rgb(1,0,0)" stroke="rgb(1,0,0)" stroke-width="1" opacity="0.996078431372549" d="M 275.5 93 Q 277.8 92.3 277 94.5 L 278 97 L 276 96.5 L 277 95.5 L 275.5 93 Z " /><path fill="rgb(1,0,0)" stroke="rgb(1,0,0)" stroke-width="1" opacity="0.996078431372549" d="M 71.5 94 L 70.5 96 L 71.5 94 Z " /><path fill="rgb(1,0,0)" stroke="rgb(1,0,0)" stroke-width="1" opacity="0.996078431372549" d="M 137.5 95 L 138 109.5 L 137 109.5 L 137.5 95 Z " /><path fill="rgb(1,0,0)" stroke="rgb(1,0,0)" stroke-width="1" opacity="0.996078431372549" d="M 133.5 96 L 134 108.5 L 133 108.5 L 133.5 96 Z " /><path fill="rgb(1,0,0)" stroke="rgb(1,0,0)" stroke-width="1" opacity="0.996078431372549" d="M 12 97 L 14 97.5 Q 10.9 99.3 12.5 101 Q 10.3 101.8 11 99.5 L 12 97 Z " /><path fill="rgb(1,0,0)" stroke="rgb(1,0,0)" stroke-width="1" opacity="0.996078431372549" d="M 277.5 98 Q 279.8 97.3 279 99.5 L 280 102 L 278 101.5 L 279 100.5 L 277.5 98 Z " /><path fill="rgb(1,0,0)" stroke="rgb(1,0,0)" stroke-width="1" opacity="0.996078431372549" d="M 10.5 102 L 11.5 104 Q 8.7 104.7 10.5 102 Z " /><path fill="rgb(1,0,0)" stroke="rgb(1,0,0)" stroke-width="1" opacity="0.996078431372549" d="M 280.5 103 L 281 105 L 279 104.5 L 280.5 103 Z " /><path fill="rgb(1,0,0)" stroke="rgb(1,0,0)" stroke-width="1" opacity="0.996078431372549" d="M 9.5 105 L 10.5 107 Q 7.7 107.7 9.5 105 Z " /><path fill="rgb(1,0,0)" stroke="rgb(1,0,0)" stroke-width="1" opacity="0.996078431372549" d="M 280 106 Q 283 105 282 108 L 279.5 109 L 280 107.5 L 280 106 Z " /><path fill="rgb(1,0,0)" stroke="rgb(1,0,0)" stroke-width="1" opacity="0.996078431372549" d="M 8.5 108 L 9 110.5 L 8 110.5 L 8.5 108 Z " /><path fill="rgb(1,0,0)" stroke="rgb(1,0,0)" stroke-width="1" opacity="0.996078431372549" d="M 48.5 109 L 47.5 111 L 48.5 109 Z " /><path fill="rgb(1,0,0)" stroke="rgb(1,0,0)" stroke-width="1" opacity="0.996078431372549" d="M 282.5 109 L 283 111.5 L 282 111.5 L 282.5 109 Z " /><path fill="rgb(1,0,0)" stroke="rgb(1,0,0)" stroke-width="1" opacity="0.996078431372549" d="M 134.5 111 L 135.5 113 L 134.5 111 Z " /><path fill="rgb(1,0,0)" stroke="rgb(1,0,0)" stroke-width="1" opacity="0.996078431372549" d="M 244.5 112 L 245.5 114 L 244.5 112 Z " /><path fill="rgb(1,0,0)" stroke="rgb(1,0,0)" stroke-width="1" opacity="0.996078431372549" d="M 283.5 113 L 284 115.5 L 283 115.5 L 283.5 113 Z " /><path fill="rgb(1,0,0)" stroke="rgb(1,0,0)" stroke-width="1" opacity="0.996078431372549" d="M 44.5 114 L 39.5 120 L 44.5 114 Z " /><path fill="rgb(1,0,0)" stroke="rgb(1,0,0)" stroke-width="1" opacity="0.996078431372549" d="M 284.5 117 L 285 119.5 L 284 119.5 L 284.5 117 Z " /><path fill="rgb(1,0,0)" stroke="rgb(1,0,0)" stroke-width="1" opacity="0.996078431372549" d="M 5.5 120 L 6 122.5 L 5 122.5 L 5.5 120 Z " /><path fill="rgb(1,0,0)" stroke="rgb(1,0,0)" stroke-width="1" opacity="0.996078431372549" d="M 65.5 121 L 226 121.5 L 65.5 122 L 65.5 121 Z " /><path fill="rgb(1,0,0)" stroke="rgb(1,0,0)" stroke-width="1" opacity="0.996078431372549" d="M 285.5 122 L 286 124.5 L 285 124.5 L 285.5 122 Z " /><path fill="rgb(1,0,0)" stroke="rgb(1,0,0)" stroke-width="1" opacity="0.996078431372549" d="M 4.5 125 L 5 128.5 L 4 128.5 L 4.5 125 Z " /><path fill="rgb(1,0,0)" stroke="rgb(1,0,0)" stroke-width="1" opacity="0.996078431372549" d="M 286.5 127 L 287 131.5 L 286 131.5 L 286.5 127 Z " /><path fill="rgb(1,0,0)" stroke="rgb(1,0,0)" stroke-width="1" opacity="0.996078431372549" d="M 67.5 130 L 78 130.5 L 67.5 131 L 67.5 130 Z " /><path fill="rgb(1,0,0)" stroke="rgb(1,0,0)" stroke-width="1" opacity="0.996078431372549" d="M 83 130 L 85 130.5 L 84.5 133 L 83 130 Z " /><path fill="rgb(1,0,0)" stroke="rgb(1,0,0)" stroke-width="1" opacity="0.996078431372549" d="M 135.5 130 L 144 130.5 L 135.5 131 L 135.5 130 Z " /><path fill="rgb(1,0,0)" stroke="rgb(1,0,0)" stroke-width="1" opacity="0.996078431372549" d="M 151.5 130 L 154 130.5 L 151.5 131 L 151.5 130 Z " /><path fill="rgb(1,0,0)" stroke="rgb(1,0,0)" stroke-width="1" opacity="0.996078431372549" d="M 155 130 L 159 130.5 L 155.5 132 L 155 130 Z " /><path fill="rgb(1,0,0)" stroke="rgb(1,0,0)" stroke-width="1" opacity="0.996078431372549" d="M 168.5 130 L 179 130.5 L 168.5 131 L 168.5 130 Z " /><path fill="rgb(1,0,0)" stroke="rgb(1,0,0)" stroke-width="1" opacity="0.996078431372549" d="M 180.5 130 L 183 130.5 L 180.5 131 L 180.5 130 Z " /><path fill="rgb(1,0,0)" stroke="rgb(1,0,0)" stroke-width="1" opacity="0.996078431372549" d="M 185.5 130 L 191 130.5 L 185.5 131 L 185.5 130 Z " /><path fill="rgb(1,0,0)" stroke="rgb(1,0,0)" stroke-width="1" opacity="0.996078431372549" d="M 197.5 130 L 206 130.5 L 197.5 131 L 197.5 130 Z " /><path fill="rgb(1,0,0)" stroke="rgb(1,0,0)" stroke-width="1" opacity="0.996078431372549" d="M 3.5 131 L 4 137.5 L 3 137.5 L 3.5 131 Z " /><path fill="rgb(1,0,0)" stroke="rgb(1,0,0)" stroke-width="1" opacity="0.996078431372549" d="M 106.5 131 L 105.5 133 L 106.5 131 Z " /><path fill="rgb(1,0,0)" stroke="rgb(1,0,0)" stroke-width="1" opacity="0.996078431372549" d="M 120.5 131 L 124.5 136 L 120.5 131 Z " /><path fill="rgb(1,0,0)" stroke="rgb(1,0,0)" stroke-width="1" opacity="0.996078431372549" d="M 155.5 133 L 156 134.5 L 153 136.5 L 155.5 133 Z " /><path fill="rgb(1,0,0)" stroke="rgb(1,0,0)" stroke-width="1" opacity="0.996078431372549" d="M 107.5 135 L 108 137.5 L 107 137.5 L 107.5 135 Z " /><path fill="rgb(1,0,0)" stroke="rgb(1,0,0)" stroke-width="1" opacity="0.996078431372549" d="M 119.5 135 L 120 137.5 L 119 137.5 L 119.5 135 Z " /><path fill="rgb(1,0,0)" stroke="rgb(1,0,0)" stroke-width="1" opacity="0.996078431372549" d="M 287.5 135 L 288 143.5 L 287 143.5 L 287.5 135 Z " /><path fill="rgb(1,0,0)" stroke="rgb(1,0,0)" stroke-width="1" opacity="0.996078431372549" d="M 223.5 137 L 224 141.5 L 223 141.5 L 223.5 137 Z " /><path fill="rgb(1,0,0)" stroke="rgb(1,0,0)" stroke-width="1" opacity="0.996078431372549" d="M 241.5 138 L 242 140.5 L 241 140.5 L 241.5 138 Z " /><path fill="rgb(1,0,0)" stroke="rgb(1,0,0)" stroke-width="1" opacity="0.996078431372549" d="M 150.5 140 L 151 141.5 L 150 144 L 148 143.5 L 150.5 140 Z " /><path fill="rgb(1,0,0)" stroke="rgb(1,0,0)" stroke-width="1" opacity="0.996078431372549" d="M 237.5 140 L 238 142.5 L 237 142.5 L 237.5 140 Z " /><path fill="rgb(1,0,0)" stroke="rgb(1,0,0)" stroke-width="1" opacity="0.996078431372549" d="M 244.5 141 L 245 143.5 L 244 143.5 L 244.5 141 Z " /><path fill="rgb(1,0,0)" stroke="rgb(1,0,0)" stroke-width="1" opacity="0.996078431372549" d="M 2.5 143 L 3 156.5 L 2 156.5 L 2.5 143 Z " /><path fill="rgb(1,0,0)" stroke="rgb(1,0,0)" stroke-width="1" opacity="0.996078431372549" d="M 185.5 143 L 186 155.5 L 185 155.5 L 185.5 143 Z " /><path fill="rgb(1,0,0)" stroke="rgb(1,0,0)" stroke-width="1" opacity="0.996078431372549" d="M 183.5 147 L 182.5 149 L 183.5 147 Z " /><path fill="rgb(1,0,0)" stroke="rgb(1,0,0)" stroke-width="1" opacity="0.996078431372549" d="M 213.5 147 L 214.5 149 L 212 148.5 L 213.5 147 Z " /><path fill="rgb(1,0,0)" stroke="rgb(1,0,0)" stroke-width="1" opacity="0.996078431372549" d="M 84.5 148 L 84.5 150 L 86 150.5 L 84.5 151 Q 81.5 149.5 84.5 148 Z " /><path fill="rgb(1,0,0)" stroke="rgb(1,0,0)" stroke-width="1" opacity="0.996078431372549" d="M 48.5 149 L 49 154.5 L 48 154.5 L 48.5 149 Z " /><path fill="rgb(1,0,0)" stroke="rgb(1,0,0)" stroke-width="1" opacity="0.996078431372549" d="M 182.5 150 L 183.5 152 L 182.5 150 Z " /><path fill="rgb(1,0,0)" stroke="rgb(1,0,0)" stroke-width="1" opacity="0.996078431372549" d="M 212.5 150 L 215 150.5 L 212.5 151 L 212.5 150 Z " /><path fill="rgb(1,0,0)" stroke="rgb(1,0,0)" stroke-width="1" opacity="0.996078431372549" d="M 287.5 156 L 288 165.5 L 287 165.5 L 287.5 156 Z " /><path fill="rgb(1,0,0)" stroke="rgb(1,0,0)" stroke-width="1" opacity="0.996078431372549" d="M 237.5 157 L 238 159.5 L 237 159.5 L 237.5 157 Z " /><path fill="rgb(1,0,0)" stroke="rgb(1,0,0)" stroke-width="1" opacity="0.996078431372549" d="M 191.5 159 L 192 162.5 L 191 162.5 L 191.5 159 Z " /><path fill="rgb(1,0,0)" stroke="rgb(1,0,0)" stroke-width="1" opacity="0.996078431372549" d="M 222.5 159 L 223 163.5 L 222 163.5 L 222.5 159 Z " /><path fill="rgb(1,0,0)" stroke="rgb(1,0,0)" stroke-width="1" opacity="0.996078431372549" d="M 214.5 160 L 215 162.5 L 214 162.5 L 214.5 160 Z " /><path fill="rgb(1,0,0)" stroke="rgb(1,0,0)" stroke-width="1" opacity="0.996078431372549" d="M 3.5 162 L 4 168.5 L 3 168.5 L 3.5 162 Z " /><path fill="rgb(1,0,0)" stroke="rgb(1,0,0)" stroke-width="1" opacity="0.996078431372549" d="M 49.5 162 L 50 164.5 L 49 164.5 L 49.5 162 Z " /><path fill="rgb(1,0,0)" stroke="rgb(1,0,0)" stroke-width="1" opacity="0.996078431372549" d="M 107.5 162 L 108 164.5 L 107 164.5 L 107.5 162 Z " /><path fill="rgb(1,0,0)" stroke="rgb(1,0,0)" stroke-width="1" opacity="0.996078431372549" d="M 119.5 162 L 120 164.5 L 119 164.5 L 119.5 162 Z " /><path fill="rgb(1,0,0)" stroke="rgb(1,0,0)" stroke-width="1" opacity="0.996078431372549" d="M 189.5 164 L 186.5 168 L 189.5 164 Z " /><path fill="rgb(1,0,0)" stroke="rgb(1,0,0)" stroke-width="1" opacity="0.996078431372549" d="M 223.5 168 L 227 169.5 L 221.5 171 L 221.5 170 L 224 169.5 L 223.5 168 Z " /><path fill="rgb(1,0,0)" stroke="rgb(1,0,0)" stroke-width="1" opacity="0.996078431372549" d="M 286.5 168 L 287 172.5 L 285 171.5 L 286.5 168 Z " /><path fill="rgb(1,0,0)" stroke="rgb(1,0,0)" stroke-width="1" opacity="0.996078431372549" d="M 4.5 171 L 5 174.5 L 4 174.5 L 4.5 171 Z " /><path fill="rgb(1,0,0)" stroke="rgb(1,0,0)" stroke-width="1" opacity="0.996078431372549" d="M 239.5 174 L 242 175.5 L 241.5 177 L 241 175 Q 238.3 173.9 239 176.5 L 238 176.5 L 239.5 174 Z " /><path fill="rgb(1,0,0)" stroke="rgb(1,0,0)" stroke-width="1" opacity="0.996078431372549" d="M 285.5 175 L 286 178.5 L 285 178.5 L 285.5 175 Z " /><path fill="rgb(1,0,0)" stroke="rgb(1,0,0)" stroke-width="1" opacity="0.996078431372549" d="M 5.5 177 L 6 179.5 L 5 179.5 L 5.5 177 Z " /><path fill="rgb(1,0,0)" stroke="rgb(1,0,0)" stroke-width="1" opacity="0.996078431372549" d="M 66.5 178 L 225 178.5 L 66.5 179 L 66.5 178 Z " /><path fill="rgb(1,0,0)" stroke="rgb(1,0,0)" stroke-width="1" opacity="0.996078431372549" d="M 39.5 180 L 44.5 186 L 39.5 180 Z " /><path fill="rgb(1,0,0)" stroke="rgb(1,0,0)" stroke-width="1" opacity="0.996078431372549" d="M 284.5 180 L 285 182.5 L 284 182.5 L 284.5 180 Z " /><path fill="rgb(1,0,0)" stroke="rgb(1,0,0)" stroke-width="1" opacity="0.996078431372549" d="M 65.5 181 L 225 181.5 L 65.5 182 L 65.5 181 Z " /><path fill="rgb(1,0,0)" stroke="rgb(1,0,0)" stroke-width="1" opacity="0.996078431372549" d="M 6.5 182 L 7 184.5 L 6 184.5 L 6.5 182 Z " /><path fill="rgb(1,0,0)" stroke="rgb(1,0,0)" stroke-width="1" opacity="0.996078431372549" d="M 283.5 184 L 284 186.5 L 283 186.5 L 283.5 184 Z " /><path fill="rgb(1,0,0)" stroke="rgb(1,0,0)" stroke-width="1" opacity="0.996078431372549" d="M 246.5 185 L 244.5 188 L 246.5 185 Z " /><path fill="rgb(1,0,0)" stroke="rgb(1,0,0)" stroke-width="1" opacity="0.996078431372549" d="M 282.5 188 L 283 190.5 L 282 190.5 L 282.5 188 Z " /><path fill="rgb(1,0,0)" stroke="rgb(1,0,0)" stroke-width="1" opacity="0.996078431372549" d="M 242.5 190 L 241.5 192 L 242.5 190 Z " /><path fill="rgb(1,0,0)" stroke="rgb(1,0,0)" stroke-width="1" opacity="0.996078431372549" d="M 279.5 191 L 282 192 Q 283 195 280 194 L 279.5 191 Z " /><path fill="rgb(1,0,0)" stroke="rgb(1,0,0)" stroke-width="1" opacity="0.996078431372549" d="M 9.5 193 L 10.5 195 Q 7.7 195.7 9.5 193 Z " /><path fill="rgb(1,0,0)" stroke="rgb(1,0,0)" stroke-width="1" opacity="0.996078431372549" d="M 194.5 195 L 195.5 197 L 194.5 195 Z " /><path fill="rgb(1,0,0)" stroke="rgb(1,0,0)" stroke-width="1" opacity="0.996078431372549" d="M 279.5 195 Q 281.8 194.3 281 196.5 L 279.5 195 Z " /><path fill="rgb(1,0,0)" stroke="rgb(1,0,0)" stroke-width="1" opacity="0.996078431372549" d="M 10 196 L 12 196.5 L 10 197.5 L 10 196 Z " /><path fill="rgb(1,0,0)" stroke="rgb(1,0,0)" stroke-width="1" opacity="0.996078431372549" d="M 130.5 198 L 132.5 201 L 130.5 198 Z " /><path fill="rgb(1,0,0)" stroke="rgb(1,0,0)" stroke-width="1" opacity="0.996078431372549" d="M 278.5 198 Q 280.8 197.3 280 199.5 L 279 202 L 277 201.5 Q 280.1 199.8 278.5 198 Z " /><path fill="rgb(1,0,0)" stroke="rgb(1,0,0)" stroke-width="1" opacity="0.996078431372549" d="M 11 199 L 13 199.5 L 11 200.5 L 11 199 Z " /><path fill="rgb(1,0,0)" stroke="rgb(1,0,0)" stroke-width="1" opacity="0.996078431372549" d="M 187.5 201 L 189 204.5 L 188 204.5 L 187.5 201 Z " /><path fill="rgb(1,0,0)" stroke="rgb(1,0,0)" stroke-width="1" opacity="0.996078431372549" d="M 123.5 202 L 121.5 205 L 123.5 202 Z " /><path fill="rgb(1,0,0)" stroke="rgb(1,0,0)" stroke-width="1" opacity="0.996078431372549" d="M 276.5 203 Q 278.8 202.3 278 204.5 L 277 207 L 275 206.5 Q 278.1 204.8 276.5 203 Z " /><path fill="rgb(1,0,0)" stroke="rgb(1,0,0)" stroke-width="1" opacity="0.996078431372549" d="M 13 204 L 15 204.5 L 15 206.5 L 17 209.5 L 15 210 L 13 204 Z " /><path fill="rgb(1,0,0)" stroke="rgb(1,0,0)" stroke-width="1" opacity="0.996078431372549" d="M 219.5 205 L 218.5 207 L 219.5 205 Z " /><path fill="rgb(1,0,0)" stroke="rgb(1,0,0)" stroke-width="1" opacity="0.996078431372549" d="M 138.5 207 L 139 209.5 L 138 209.5 L 138.5 207 Z " /><path fill="rgb(1,0,0)" stroke="rgb(1,0,0)" stroke-width="1" opacity="0.996078431372549" d="M 73.5 208 L 76 211.5 L 75 211.5 L 73.5 208 Z " /><path fill="rgb(1,0,0)" stroke="rgb(1,0,0)" stroke-width="1" opacity="0.996078431372549" d="M 65.5 209 L 66.5 211 L 65.5 209 Z " /><path fill="rgb(1,0,0)" stroke="rgb(1,0,0)" stroke-width="1" opacity="0.996078431372549" d="M 128.5 209 L 131 210.5 L 129.5 210 L 128.5 209 Z " /><path fill="rgb(1,0,0)" stroke="rgb(1,0,0)" stroke-width="1" opacity="0.996078431372549" d="M 191.5 210 L 189.5 213 L 191.5 210 Z " /><path fill="rgb(1,0,0)" stroke="rgb(1,0,0)" stroke-width="1" opacity="0.996078431372549" d="M 215.5 210 L 212.5 214 L 215.5 210 Z " /><path fill="rgb(1,0,0)" stroke="rgb(1,0,0)" stroke-width="1" opacity="0.996078431372549" d="M 70.5 211 L 72.5 214 L 70.5 211 Z " /><path fill="rgb(1,0,0)" stroke="rgb(1,0,0)" stroke-width="1" opacity="0.996078431372549" d="M 127.5 211 L 126.5 213 L 127.5 211 Z " /><path fill="rgb(1,0,0)" stroke="rgb(1,0,0)" stroke-width="1" opacity="0.996078431372549" d="M 272.5 212 Q 274.8 211.3 274 213.5 L 271.5 217 L 270 216.5 L 272 215.5 L 271.5 214 L 273 213.5 L 272.5 212 Z " /><path fill="rgb(1,0,0)" stroke="rgb(1,0,0)" stroke-width="1" opacity="0.996078431372549" d="M 69.5 214 L 71.5 217 L 69.5 214 Z " /><path fill="rgb(1,0,0)" stroke="rgb(1,0,0)" stroke-width="1" opacity="0.996078431372549" d="M 209.5 216 L 206.5 220 L 209.5 216 Z " /><path fill="rgb(1,0,0)" stroke="rgb(1,0,0)" stroke-width="1" opacity="0.996078431372549" d="M 20.5 219 L 23 220.5 L 22.5 222 L 24 222.5 L 22.5 223 L 20.5 219 Z " /><path fill="rgb(1,0,0)" stroke="rgb(1,0,0)" stroke-width="1" opacity="0.996078431372549" d="M 85.5 220 L 86.5 222 L 85.5 220 Z " /><path fill="rgb(1,0,0)" stroke="rgb(1,0,0)" stroke-width="1" opacity="0.996078431372549" d="M 211.5 220 L 209.5 223 L 211.5 220 Z " /><path fill="rgb(1,0,0)" stroke="rgb(1,0,0)" stroke-width="1" opacity="0.996078431372549" d="M 215.5 220 L 213.5 223 L 215.5 220 Z " /><path fill="rgb(1,0,0)" stroke="rgb(1,0,0)" stroke-width="1" opacity="0.996078431372549" d="M 268 220 L 270 220.5 L 267.5 224 L 266 223.5 L 268 223 L 268 220 Z " /><path fill="rgb(1,0,0)" stroke="rgb(1,0,0)" stroke-width="1" opacity="0.996078431372549" d="M 23.5 224 L 26 225.5 L 25.5 227 L 27 227.5 L 25.5 228 L 23.5 224 Z " /><path fill="rgb(1,0,0)" stroke="rgb(1,0,0)" stroke-width="1" opacity="0.996078431372549" d="M 265.5 225 L 267 225.5 L 261.5 233 L 260 232.5 L 263 230.5 Q 260.8 229.3 263.5 228 L 265 227.5 Q 262.8 226.3 265.5 225 Z " /><path fill="rgb(1,0,0)" stroke="rgb(1,0,0)" stroke-width="1" opacity="0.996078431372549" d="M 93.5 226 L 94.5 228 L 93.5 226 Z " /><path fill="rgb(1,0,0)" stroke="rgb(1,0,0)" stroke-width="1" opacity="0.996078431372549" d="M 207.5 227 L 206.5 229 L 207.5 227 Z " /><path fill="rgb(1,0,0)" stroke="rgb(1,0,0)" stroke-width="1" opacity="0.996078431372549" d="M 224.5 227 L 225 229.5 L 224 229.5 L 224.5 227 Z " /><path fill="rgb(1,0,0)" stroke="rgb(1,0,0)" stroke-width="1" opacity="0.996078431372549" d="M 26.5 229 L 30 231.5 Q 27.8 232.8 30.5 234 L 32 234.5 L 30.5 235 L 26.5 229 Z " /><path fill="rgb(1,0,0)" stroke="rgb(1,0,0)" stroke-width="1" opacity="0.996078431372549" d="M 203.5 230 L 202.5 232 L 203.5 230 Z " /><path fill="rgb(1,0,0)" stroke="rgb(1,0,0)" stroke-width="1" opacity="0.996078431372549" d="M 65.5 231 L 64.5 233 L 65.5 231 Z " /><path fill="rgb(1,0,0)" stroke="rgb(1,0,0)" stroke-width="1" opacity="0.996078431372549" d="M 260.5 234 L 258.5 237 L 257 236.5 L 260.5 234 Z " /><path fill="rgb(1,0,0)" stroke="rgb(1,0,0)" stroke-width="1" opacity="0.996078431372549" d="M 31.5 236 L 36 239.5 L 34.5 240 L 31.5 236 Z " /><path fill="rgb(1,0,0)" stroke="rgb(1,0,0)" stroke-width="1" opacity="0.996078431372549" d="M 257.5 238 L 254.5 242 L 253 242.5 L 254 243.5 L 239.5 258 L 253 243.5 Q 250.2 241.7 254.5 240 L 257.5 238 Z " /><path fill="rgb(1,0,0)" stroke="rgb(1,0,0)" stroke-width="1" opacity="0.996078431372549" d="M 35.5 241 L 41 245.5 L 43 248.5 L 35.5 241 Z " /><path fill="rgb(1,0,0)" stroke="rgb(1,0,0)" stroke-width="1" opacity="0.996078431372549" d="M 140.5 242 L 151 242.5 L 140.5 243 L 140.5 242 Z " /><path fill="rgb(1,0,0)" stroke="rgb(1,0,0)" stroke-width="1" opacity="0.996078431372549" d="M 147.5 246 L 154 246.5 L 147.5 247 L 147.5 246 Z " /><path fill="rgb(1,0,0)" stroke="rgb(1,0,0)" stroke-width="1" opacity="0.996078431372549" d="M 145.5 249 L 150 249.5 L 145.5 250 L 145.5 249 Z " /><path fill="rgb(1,0,0)" stroke="rgb(1,0,0)" stroke-width="1" opacity="0.996078431372549" d="M 46.5 252 L 53.5 260 L 46.5 252 Z " /><path fill="rgb(1,0,0)" stroke="rgb(1,0,0)" stroke-width="1" opacity="0.996078431372549" d="M 142.5 253 L 149 253.5 L 142.5 254 L 142.5 253 Z " /><path fill="rgb(1,0,0)" stroke="rgb(1,0,0)" stroke-width="1" opacity="0.996078431372549" d="M 174.5 258 L 177 260.5 L 177 287.5 L 176.5 290 L 174 289.5 L 176 287.5 L 176 260.5 L 174.5 258 Z " /><path fill="rgb(1,0,0)" stroke="rgb(1,0,0)" stroke-width="1" opacity="0.996078431372549" d="M 236.5 259 L 233.5 263 L 236.5 259 Z " /><path fill="rgb(1,0,0)" stroke="rgb(1,0,0)" stroke-width="1" opacity="0.996078431372549" d="M 55.5 260 L 58.5 264 L 55.5 260 Z " /><path fill="rgb(1,0,0)" stroke="rgb(1,0,0)" stroke-width="1" opacity="0.996078431372549" d="M 231.5 263 L 229.5 266 L 231.5 263 Z " /><path fill="rgb(1,0,0)" stroke="rgb(1,0,0)" stroke-width="1" opacity="0.996078431372549" d="M 60.5 264 L 62.5 267 L 60.5 264 Z " /><path fill="rgb(1,0,0)" stroke="rgb(1,0,0)" stroke-width="1" opacity="0.996078431372549" d="M 227.5 266 L 226.5 268 L 227.5 266 Z " /><path fill="rgb(1,0,0)" stroke="rgb(1,0,0)" stroke-width="1" opacity="0.996078431372549" d="M 64.5 267 L 65.5 269 L 64.5 267 Z " /><path fill="rgb(1,0,0)" stroke="rgb(1,0,0)" stroke-width="1" opacity="0.996078431372549" d="M 224.5 268 L 223.5 270 L 224.5 268 Z " /><path fill="rgb(1,0,0)" stroke="rgb(1,0,0)" stroke-width="1" opacity="0.996078431372549" d="M 67.5 269 L 68.5 271 L 67.5 269 Z " /><path fill="rgb(1,0,0)" stroke="rgb(1,0,0)" stroke-width="1" opacity="0.996078431372549" d="M 221.5 270 L 220.5 272 L 221.5 270 Z " /><path fill="rgb(1,0,0)" stroke="rgb(1,0,0)" stroke-width="1" opacity="0.996078431372549" d="M 72.5 272 L 73.5 274 L 72.5 272 Z " /><path fill="rgb(1,0,0)" stroke="rgb(1,0,0)" stroke-width="1" opacity="0.996078431372549" d="M 216.5 273 L 215.5 275 L 213.5 276 L 214.5 274 L 216.5 273 Z " /><path fill="rgb(1,0,0)" stroke="rgb(1,0,0)" stroke-width="1" opacity="0.996078431372549" d="M 204.5 279 L 206 279.5 L 202.5 281 L 202.5 280 L 204.5 279 Z " /><path fill="rgb(1,0,0)" stroke="rgb(1,0,0)" stroke-width="1" opacity="0.996078431372549" d="M 197.5 282 L 199 282.5 L 195.5 284 L 195.5 283 L 197.5 282 Z " /><path fill="rgb(1,0,0)" stroke="rgb(1,0,0)" stroke-width="1" opacity="0.996078431372549" d="M 106.5 287 L 109 287.5 L 106.5 288 L 106.5 287 Z " /><path fill="rgb(1,0,0)" stroke="rgb(1,0,0)" stroke-width="1" opacity="0.996078431372549" d="M 182.5 287 L 185 287.5 L 182.5 288 L 182.5 287 Z " /><path fill="rgb(1,0,0)" stroke="rgb(1,0,0)" stroke-width="1" opacity="0.996078431372549" d="M 110.5 288 L 113 288.5 L 110.5 289 L 110.5 288 Z " /><path fill="rgb(1,0,0)" stroke="rgb(1,0,0)" stroke-width="1" opacity="0.996078431372549" d="M 114 288 L 117 289.5 L 114 290 L 114 288 Z " /><path fill="rgb(1,0,0)" stroke="rgb(1,0,0)" stroke-width="1" opacity="0.996078431372549" d="M 178.5 288 L 181 288.5 L 178.5 289 L 178.5 288 Z " /><path fill="rgb(1,0,0)" stroke="rgb(1,0,0)" stroke-width="1" opacity="0.996078431372549" d="M 119 289 L 122 290.5 L 119 291 L 119 289 Z " /><path fill="rgb(1,0,0)" stroke="rgb(1,0,0)" stroke-width="1" opacity="0.996078431372549" d="M 169.5 289 L 172 290.5 L 168.5 291 L 169.5 289 Z " /><path fill="rgb(1,0,0)" stroke="rgb(1,0,0)" stroke-width="1" opacity="0.996078431372549" d="M 125 290 L 130 291.5 L 125 292 L 125 290 Z " /><path fill="rgb(1,0,0)" stroke="rgb(1,0,0)" stroke-width="1" opacity="0.996078431372549" d="M 162.5 290 L 166 291.5 L 161.5 292 L 162.5 290 Z " /><path fill="rgb(1,0,0)" stroke="rgb(1,0,0)" stroke-width="1" opacity="0.996078431372549" d="M 135.5 291 L 147.5 292 Q 149.3 289.3 155.5 291 L 156.5 293 L 134 292.5 L 135.5 291 Z " /><path fill="rgb(0,0,0)" stroke="rgb(0,0,0)" stroke-width="1" opacity="1" d="M 132.5 8 L 137 8.5 L 132.5 9 L 132.5 8 Z " /><path fill="rgb(0,0,0)" stroke="rgb(0,0,0)" stroke-width="1" opacity="1" d="M 154.5 8 L 159 8.5 L 154.5 9 L 154.5 8 Z " /><path fill="rgb(0,0,0)" stroke="rgb(0,0,0)" stroke-width="1" opacity="1" d="M 164.5 9 L 167 9.5 L 164.5 10 L 164.5 9 Z " /><path fill="rgb(0,0,0)" stroke="rgb(0,0,0)" stroke-width="1" opacity="1" d="M 113.5 11 L 115 11.5 L 114 12.5 L 114 39.5 L 119.5 44 L 128.5 46 L 152.5 47 L 153.5 46 L 167.5 45 Q 174.1 44.1 177 39.5 L 177 12.5 L 176 11.5 L 177.5 12 Q 216.6 20.9 241 44.5 Q 240.3 46.8 242.5 46 L 252.5 57 L 248.5 54 L 225 68.5 L 224 72.5 Q 232.3 102.7 252.5 121 L 256.5 122 L 282 108 L 287 132.5 L 288 155.5 L 287 156.5 L 287 167.5 L 285 171.5 L 286 174.5 L 282 192 L 255.5 178 Q 248 181 244 187.5 L 228 214.5 L 224 229.5 L 226.5 233 L 249.5 246 L 254 242.5 Q 226.3 276.8 176.5 289 L 177 287.5 L 177 260.5 L 174.5 258 L 161.5 254 L 142.5 253 L 141.5 254 L 123.5 255 Q 116.9 255.9 114 260.5 L 113.5 289 Q 69.5 278 43 249.5 L 41 246.5 L 66 231.5 L 66 223.5 L 56 201.5 Q 49.5 189 39.5 180 L 34.5 178 L 9.5 193 L 4 170.5 L 3 138.5 L 4 137.5 L 4 129.5 L 6 118.5 L 9.5 107 L 10 109 L 35.5 122 L 45 114.5 Q 56.4 100.4 64 82.5 Q 67 77.5 66 68.5 L 41.5 54 L 36 58.5 Q 63.9 23.9 113.5 11 Z M 133 51 L 121 54 Q 118 53 119 57 L 133 54 L 146 54 L 147 53 L 147 51 L 133 51 Z M 169 54 L 169 56 L 193 66 Q 197 67 196 65 Q 185 56 169 54 Z M 133 58 Q 103 63 86 79 Q 71 91 62 109 L 56 124 L 54 135 L 53 138 L 53 163 L 56 177 L 63 194 L 75 212 L 77 212 L 87 222 Q 89 221 88 224 L 102 232 Q 104 231 103 234 L 105 233 L 122 240 L 132 242 L 140 242 L 141 243 L 160 242 L 179 237 Q 195 231 207 220 Q 218 210 226 197 L 235 176 L 238 160 L 238 141 L 234 122 Q 227 102 215 89 Q 200 71 176 62 L 159 58 L 133 58 Z M 95 64 L 80 75 L 75 80 L 75 82 L 97 67 Q 99 63 95 64 Z M 215 79 L 213 81 Q 222 89 228 101 L 232 102 L 227 93 L 217 80 L 215 79 Z M 60 100 Q 52 110 49 124 Q 48 128 52 126 Q 55 112 62 102 Q 63 99 60 100 Z M 240 123 L 239 129 L 242 142 L 242 151 L 245 151 L 244 134 L 242 124 L 240 123 Z M 46 149 L 46 163 L 49 176 L 52 177 L 49 162 L 49 150 L 46 149 Z M 240 174 L 238 176 L 234 190 L 229 198 Q 228 202 232 200 L 242 176 L 240 174 Z M 59 198 L 59 201 L 69 215 L 77 221 L 77 219 L 62 200 Q 63 197 59 198 Z M 213 218 L 213 220 L 195 233 L 193 236 L 203 232 L 216 221 Q 217 216 213 218 Z M 95 234 L 95 236 Q 104 243 118 246 Q 123 248 121 243 L 115 242 L 95 234 Z M 170 243 L 160 246 Q 149 245 144 247 L 146 250 L 160 249 L 171 246 Q 173 247 172 245 L 170 243 Z " /><path fill="rgb(0,0,0)" stroke="rgb(0,0,0)" stroke-width="1" opacity="1" d="M 254.5 59 L 257.5 63 L 254.5 59 Z " /><path fill="rgb(0,0,0)" stroke="rgb(0,0,0)" stroke-width="1" opacity="1" d="M 34.5 61 L 32.5 64 L 34.5 61 Z " /><path fill="rgb(0,0,0)" stroke="rgb(0,0,0)" stroke-width="1" opacity="1" d="M 258.5 64 L 260.5 67 L 258.5 64 Z " /><path fill="rgb(0,0,0)" stroke="rgb(0,0,0)" stroke-width="1" opacity="1" d="M 30.5 66 L 29.5 68 L 30.5 66 Z " /><path fill="rgb(0,0,0)" stroke="rgb(0,0,0)" stroke-width="1" opacity="1" d="M 261.5 68 L 262.5 70 L 261.5 68 Z " /><path fill="rgb(0,0,0)" stroke="rgb(0,0,0)" stroke-width="1" opacity="1" d="M 28.5 69 L 27.5 71 L 28.5 69 Z " /><path fill="rgb(0,0,0)" stroke="rgb(0,0,0)" stroke-width="1" opacity="1" d="M 263.5 71 L 264.5 73 L 263.5 71 Z " /><path fill="rgb(0,0,0)" stroke="rgb(0,0,0)" stroke-width="1" opacity="1" d="M 26.5 72 L 25.5 74 L 26.5 72 Z " /><path fill="rgb(0,0,0)" stroke="rgb(0,0,0)" stroke-width="1" opacity="1" d="M 265.5 74 L 266.5 76 L 265.5 74 Z " /><path fill="rgb(0,0,0)" stroke="rgb(0,0,0)" stroke-width="1" opacity="1" d="M 24.5 75 L 23.5 77 L 24.5 75 Z " /><path fill="rgb(0,0,0)" stroke="rgb(0,0,0)" stroke-width="1" opacity="1" d="M 268.5 79 L 269.5 81 L 268.5 79 Z " /><path fill="rgb(0,0,0)" stroke="rgb(0,0,0)" stroke-width="1" opacity="1" d="M 135 92 L 142.5 92 L 144 93.5 L 145 107.5 L 144 112 Q 141.9 113.6 136.5 113 L 134 110.5 L 134 94.5 L 135 92 Z M 137 95 L 137 110 L 141 110 L 141 96 L 137 95 Z " /><path fill="rgb(0,0,0)" stroke="rgb(0,0,0)" stroke-width="1" opacity="1" d="M 148 92 L 157 92 L 157 95 Q 149.5 92.5 152 100 L 157 100 L 157 103 L 152 103 L 152 113 L 148 113 L 148 92 Z " /><path fill="rgb(0,0,0)" stroke="rgb(0,0,0)" stroke-width="1" opacity="1" d="M 64 119 L 225.5 119 L 226 121 L 64.5 121 L 64 119 Z " /><path fill="rgb(0,0,0)" stroke="rgb(0,0,0)" stroke-width="1" opacity="1" d="M 109.5 130 L 108 132.5 L 107 135.5 L 107 164.5 L 110 169.5 L 108.5 170 L 103 165.5 L 99 157.5 L 98 149.5 Q 100.5 148 99 142.5 L 104 133 L 109.5 130 Z " /><path fill="rgb(0,0,0)" stroke="rgb(0,0,0)" stroke-width="1" opacity="1" d="M 117.5 130 L 125 136.5 L 128 142.5 Q 126.8 147.3 129 148.5 L 128 150.5 L 128 152.5 Q 128.2 163.7 121.5 168 L 117.5 170 L 119 167.5 L 120 164.5 L 120 135.5 L 117.5 130 Z " /><path fill="rgb(0,0,0)" stroke="rgb(0,0,0)" stroke-width="1" opacity="1" d="M 159.5 130 L 161 130.5 L 156.5 133 L 156 131 L 159.5 130 Z " /><path fill="rgb(0,0,0)" stroke="rgb(0,0,0)" stroke-width="1" opacity="1" d="M 183.5 130 L 191 131 L 190.5 138 L 186.5 132 Q 182.7 131.8 183.5 130 Z " /><path fill="rgb(0,0,0)" stroke="rgb(0,0,0)" stroke-width="1" opacity="1" d="M 211.5 130 L 219.5 132 L 223 135.5 Q 225 145 219.5 147 L 214 148 Q 216 143.5 215 134.5 L 212.5 131 L 211.5 130 Z " /><path fill="rgb(0,0,0)" stroke="rgb(0,0,0)" stroke-width="1" opacity="1" d="M 68 131 L 75.5 131 L 76 131.5 L 76 170 L 68.5 170 L 68 169.5 L 68 131 Z " /><path fill="rgb(0,0,0)" stroke="rgb(0,0,0)" stroke-width="1" opacity="1" d="M 84.5 131 L 87.5 131 L 94 135.5 L 95 142.5 L 91.5 148 L 82.5 151 L 82.5 150 L 85 148.5 L 86 135.5 L 84.5 131 Z " /><path fill="rgb(0,0,0)" stroke="rgb(0,0,0)" stroke-width="1" opacity="1" d="M 135 131 L 142.5 131 L 143 131.5 L 143 170 L 135.5 170 L 135 169.5 L 135 131 Z " /><path fill="rgb(0,0,0)" stroke="rgb(0,0,0)" stroke-width="1" opacity="1" d="M 169 131 L 176.5 131 L 177 131.5 L 177 170 L 169.5 170 L 169 169.5 L 169 131 Z " /><path fill="rgb(0,0,0)" stroke="rgb(0,0,0)" stroke-width="1" opacity="1" d="M 198 131 L 205.5 131 L 206 131.5 L 206 170 L 198.5 170 L 198 169.5 L 198 131 Z " /><path fill="rgb(0,0,0)" stroke="rgb(0,0,0)" stroke-width="1" opacity="1" d="M 152.5 138 L 151.5 140 L 152.5 138 Z " /><path fill="rgb(0,0,0)" stroke="rgb(0,0,0)" stroke-width="1" opacity="1" d="M 148.5 144 Q 150.8 143.3 150 145.5 L 164 170 L 156.5 170 L 156 168.5 Q 148.5 160.5 145 148.5 L 148.5 144 Z " /><path fill="rgb(0,0,0)" stroke="rgb(0,0,0)" stroke-width="1" opacity="1" d="M 184.5 146 L 185 152.5 L 184 152.5 L 182.5 150 L 180 149.5 L 184 147.5 L 184.5 146 Z " /><path fill="rgb(0,0,0)" stroke="rgb(0,0,0)" stroke-width="1" opacity="1" d="M 213.5 151 Q 219.7 150.3 221 154.5 L 224 169.5 L 219.5 170 L 216 167.5 L 213.5 151 Z " /><path fill="rgb(0,0,0)" stroke="rgb(0,0,0)" stroke-width="1" opacity="1" d="M 190.5 162 L 191 170 L 183 169.5 L 190 164.5 L 190.5 162 Z " /><path fill="rgb(0,0,0)" stroke="rgb(0,0,0)" stroke-width="1" opacity="1" d="M 65.5 179 L 225.5 179 L 226 181 L 64 180.5 L 65.5 179 Z " /><path fill="rgb(0,0,0)" stroke="rgb(0,0,0)" stroke-width="1" opacity="1" d="M 190.5 195 Q 195.3 194.3 196 197.5 L 197 199.5 L 195 204.5 L 196.5 204 L 201 205 L 202 210.5 Q 200.3 214.5 194 213 Q 195.1 210.3 192.5 211 L 191.5 210 L 188.5 213 Q 183 214 182 210.5 Q 181 205 184.5 204 L 188.5 205 L 189 202.5 L 187 198.5 L 188 196 L 190.5 195 Z " /><path fill="rgb(0,0,0)" stroke="rgb(0,0,0)" stroke-width="1" opacity="1" d="M 129.5 197 L 132.5 201 L 138 205.5 Q 139.5 211.5 136.5 213 L 131 212 L 129.5 209 Q 127.3 208.3 128 210.5 Q 127.3 213.8 122.5 213 L 120 207.5 L 129.5 197 Z " /><path fill="rgb(0,0,0)" stroke="rgb(0,0,0)" stroke-width="1" opacity="1" d="M 20.5 218 L 21.5 220 L 20.5 218 Z " /><path fill="rgb(0,0,0)" stroke="rgb(0,0,0)" stroke-width="1" opacity="1" d="M 23.5 223 L 24.5 225 L 23.5 223 Z " /><path fill="rgb(0,0,0)" stroke="rgb(0,0,0)" stroke-width="1" opacity="1" d="M 26.5 228 L 27.5 230 L 26.5 228 Z " /><path fill="rgb(0,0,0)" stroke="rgb(0,0,0)" stroke-width="1" opacity="1" d="M 29.5 232 L 30.5 234 L 29.5 232 Z " /><path fill="rgb(0,0,0)" stroke="rgb(0,0,0)" stroke-width="1" opacity="1" d="M 260.5 233 L 259.5 235 L 260.5 233 Z " /><path fill="rgb(0,0,0)" stroke="rgb(0,0,0)" stroke-width="1" opacity="1" d="M 31.5 235 L 33.5 238 L 31.5 235 Z " /><path fill="rgb(0,0,0)" stroke="rgb(0,0,0)" stroke-width="1" opacity="1" d="M 257.5 237 L 255.5 240 L 257.5 237 Z " /><path fill="rgb(0,0,0)" stroke="rgb(0,0,0)" stroke-width="1" opacity="1" d="M 35.5 240 L 38.5 244 L 35.5 240 Z " /><path fill="rgb(0,0,0)" stroke="rgb(0,0,0)" stroke-width="1" opacity="1" d="M 171.5 289 L 174 289.5 L 171.5 290 L 171.5 289 Z " /><path fill="rgb(0,0,0)" stroke="rgb(0,0,0)" stroke-width="1" opacity="1" d="M 122.5 290 L 125 290.5 L 122.5 291 L 122.5 290 Z " /><path fill="rgb(0,0,0)" stroke="rgb(0,0,0)" stroke-width="1" opacity="1" d="M 165.5 290 L 168 290.5 L 165.5 291 L 165.5 290 Z " /><path fill="rgb(0,0,0)" stroke="rgb(0,0,0)" stroke-width="1" opacity="1" d="M 130.5 291 L 135 291.5 L 130.5 292 L 130.5 291 Z " /><path fill="rgb(0,0,0)" stroke="rgb(0,0,0)" stroke-width="1" opacity="1" d="M 156.5 291 L 161 291.5 L 156.5 292 L 156.5 291 Z " /><path fill="rgb(253,253,253)" stroke="rgb(253,253,253)" stroke-width="1" opacity="1" d="M 139.5 9 L 162.5 10 L 163.5 11 L 174.5 12 L 176 13.5 L 176 38.5 L 175 41 L 167.5 44 L 152.5 45 L 151.5 46 L 149.5 46 L 128.5 45 L 117.5 42 L 115 39.5 L 115 13.5 L 116.5 12 L 127.5 11 L 128.5 10 L 138.5 10 L 139.5 9 Z " /><path fill="rgb(253,253,253)" stroke="rgb(253,253,253)" stroke-width="1" opacity="1" d="M 132.5 52 L 145 52.5 L 132.5 53 L 120.5 56 L 121.5 54 L 132.5 52 Z " /><path fill="rgb(253,253,253)" stroke="rgb(253,253,253)" stroke-width="1" opacity="1" d="M 41.5 55 L 65 69.5 L 65 75.5 L 62 84.5 L 55 98.5 Q 48.2 111.2 37.5 120 L 34.5 121 L 11 108 Q 20.5 76.2 41.5 55 Z " /><path fill="rgb(253,253,253)" stroke="rgb(253,253,253)" stroke-width="1" opacity="1" d="M 170.5 55 Q 184.4 57.6 194 64.5 L 192.5 65 Q 183.4 58.6 170.5 56 L 170.5 55 Z " /><path fill="rgb(253,253,253)" stroke="rgb(253,253,253)" stroke-width="1" opacity="1" d="M 249.5 55 Q 262.1 68.4 271 85.5 L 278 101.5 L 279 107.5 L 260.5 119 L 254.5 121 L 246 113.5 Q 235.8 101.2 229 85.5 L 226 76.5 L 226 68 L 249.5 55 Z " /><path fill="rgb(253,253,253)" stroke="rgb(253,253,253)" stroke-width="1" opacity="1" d="M 132.5 59 L 157.5 59 L 180.5 65 Q 202.9 74.6 217 92.5 Q 228.5 106 234 125.5 L 237 140.5 L 237 159.5 L 234 174.5 L 229 188.5 Q 221.5 204.5 209.5 216 Q 195.6 229.6 175.5 237 L 158.5 241 L 141.5 242 L 140.5 241 L 126.5 240 L 107.5 234 Q 88.8 225.2 76 210.5 Q 64.4 197.6 58 179.5 L 54 162.5 L 54 137.5 Q 60.8 101.8 83.5 82 Q 101.8 64.3 132.5 59 Z M 131 64 L 129 66 L 129 83 L 131 84 L 134 82 L 136 83 L 137 80 L 138 80 L 138 82 L 145 82 L 145 68 L 144 65 Q 139 64 138 67 L 139 72 L 138 75 L 136 68 Q 137 64 133 66 L 133 64 L 131 64 Z M 146 65 L 146 82 L 149 82 L 149 70 L 150 70 L 150 82 L 153 82 L 154 69 L 154 82 L 157 83 L 157 68 L 155 65 L 153 66 L 146 65 Z M 124 66 L 121 69 L 121 85 Q 127 86 128 83 L 128 75 L 125 76 L 125 81 L 124 71 L 125 71 Q 124 75 128 73 L 128 66 L 124 66 Z M 158 66 L 158 85 L 162 84 L 165 84 L 165 69 L 158 66 Z M 166 66 L 166 85 L 168 85 Q 169 87 170 85 L 170 71 L 169 70 L 170 67 L 166 66 Z M 114 70 L 112 72 Q 113 76 109 74 L 108 77 L 108 90 L 110 91 L 115 89 L 115 71 L 114 70 Z M 171 71 L 171 86 L 175 88 L 178 87 L 178 75 L 177 73 Q 176 70 171 71 Z M 180 73 L 179 90 L 182 90 L 183 79 L 183 91 L 185 92 L 186 92 L 186 78 L 180 73 Z M 106 74 L 104 76 L 104 93 L 107 92 L 107 75 L 106 74 Z M 189 78 L 187 80 Q 186 85 189 87 L 188 86 L 187 92 L 192 95 Q 193 97 194 95 Q 195 88 192 87 L 194 86 L 193 80 L 189 78 Z M 101 79 L 96 83 L 96 97 L 98 97 L 99 96 L 100 83 L 100 87 L 103 86 L 103 79 L 101 79 Z M 196 80 L 195 98 L 198 99 L 199 88 L 199 100 L 202 101 L 202 88 Q 197 86 198 81 L 196 80 Z M 92 84 L 88 90 L 87 86 L 85 87 L 83 89 L 83 97 L 82 90 L 79 91 L 79 102 L 78 94 L 75 96 L 75 107 L 76 108 Q 75 110 78 109 L 80 105 L 83 106 Q 87 103 87 97 L 88 97 L 87 99 L 88 101 L 93 100 L 95 97 L 95 86 L 92 84 Z M 204 86 L 203 102 L 206 104 L 207 104 L 207 88 L 204 86 Z M 136 91 L 133 94 L 133 111 L 134 113 Q 136 115 143 114 L 146 109 Q 148 99 145 94 Q 143 89 136 91 Z M 149 91 L 147 93 L 147 113 L 149 114 L 153 114 L 153 104 L 158 104 Q 161 97 153 99 L 153 96 L 158 96 L 158 91 L 149 91 Z M 209 92 L 208 107 L 214 110 L 215 109 Q 217 100 214 97 L 209 92 Z M 65 118 L 63 121 L 65 122 L 227 122 L 227 118 L 65 118 Z M 64 129 Q 63 132 67 131 L 67 169 L 64 169 L 65 171 L 80 171 L 80 169 L 77 169 L 77 152 Q 85 153 91 150 L 96 144 L 95 136 L 88 130 L 64 129 Z M 110 129 L 106 131 Q 100 135 98 143 Q 96 157 101 165 Q 104 171 113 172 L 121 170 Q 127 166 129 158 Q 132 142 125 135 L 119 129 L 110 129 Z M 133 129 L 132 131 L 134 132 L 134 169 L 131 170 L 133 171 L 147 171 Q 148 168 144 169 L 145 152 L 154 168 Q 155 170 152 169 L 153 171 L 192 171 L 192 158 L 189 164 Q 186 169 178 169 L 179 150 L 182 151 Q 185 153 185 158 L 186 158 L 186 142 L 184 146 L 179 149 L 178 131 L 185 132 L 188 134 L 190 141 L 192 140 L 192 131 L 191 129 L 167 129 L 165 131 L 168 131 L 168 169 L 166 169 L 150 144 L 156 135 L 164 131 L 163 129 L 152 129 L 150 131 L 155 132 L 145 148 L 144 148 L 144 132 L 147 131 L 147 129 L 133 129 Z M 194 129 Q 193 132 197 131 L 197 169 L 194 169 L 195 171 L 210 171 Q 211 168 207 169 L 207 151 L 211 150 L 213 153 L 213 161 L 215 168 L 220 171 Q 225 172 227 170 L 227 168 L 224 169 L 222 155 L 215 150 L 220 148 Q 226 146 224 136 L 218 130 L 194 129 Z M 65 178 L 63 181 L 65 182 L 227 182 L 227 178 L 65 178 Z M 191 194 L 189 195 L 186 199 L 187 203 Q 182 202 181 207 L 182 213 Q 184 215 190 214 L 191 214 L 190 216 L 190 217 L 194 217 L 193 214 L 195 214 Q 202 215 203 211 L 202 206 L 197 203 L 198 201 L 197 197 Q 196 193 191 194 Z M 97 195 L 88 206 L 93 213 L 98 216 L 106 206 L 100 198 L 97 195 Z M 130 195 L 128 198 L 124 201 L 119 208 Q 119 212 123 214 Q 127 215 129 212 L 128 214 Q 127 218 131 216 L 130 213 L 133 214 Q 138 215 139 212 L 139 206 L 130 195 Z M 153 195 L 149 199 Q 148 205 151 207 L 159 214 Q 158 216 161 215 L 161 214 L 170 205 L 171 202 Q 171 197 168 195 Q 162 194 161 198 L 157 195 L 153 195 Z " /><path fill="rgb(253,253,253)" stroke="rgb(253,253,253)" stroke-width="1" opacity="1" d="M 95.5 65 L 94.5 67 Q 83.9 72.4 76.5 81 L 76 79 L 95.5 65 Z " /><path fill="rgb(253,253,253)" stroke="rgb(253,253,253)" stroke-width="1" opacity="1" d="M 161.5 71 L 162 79.5 L 161 79.5 L 161.5 71 Z " /><path fill="rgb(253,253,253)" stroke="rgb(253,253,253)" stroke-width="1" opacity="1" d="M 174.5 75 L 175 83.5 L 174 83.5 L 174.5 75 Z " /><path fill="rgb(253,253,253)" stroke="rgb(253,253,253)" stroke-width="1" opacity="1" d="M 111.5 77 L 112 85.5 L 111 85.5 L 111.5 77 Z " /><path fill="rgb(253,253,253)" stroke="rgb(253,253,253)" stroke-width="1" opacity="1" d="M 215.5 81 L 231 100.5 L 229 101 L 215.5 81 Z " /><path fill="rgb(253,253,253)" stroke="rgb(253,253,253)" stroke-width="1" opacity="1" d="M 91.5 89 L 92 95.5 L 91 95.5 L 91.5 89 Z " /><path fill="rgb(253,253,253)" stroke="rgb(253,253,253)" stroke-width="1" opacity="1" d="M 138 96 L 140 96.5 L 140 109 L 138 108.5 L 138 96 Z " /><path fill="rgb(253,253,253)" stroke="rgb(253,253,253)" stroke-width="1" opacity="1" d="M 211.5 98 L 212 104.5 L 211 104.5 L 211.5 98 Z " /><path fill="rgb(253,253,253)" stroke="rgb(253,253,253)" stroke-width="1" opacity="1" d="M 59 101 L 61 101.5 Q 54.1 111.5 50.5 125 L 50 123.5 L 59 101 Z " /><path fill="rgb(253,253,253)" stroke="rgb(253,253,253)" stroke-width="1" opacity="1" d="M 240.5 125 L 243 133.5 L 244 149.5 L 243 149.5 L 242 133.5 L 240.5 125 Z " /><path fill="rgb(253,253,253)" stroke="rgb(253,253,253)" stroke-width="1" opacity="1" d="M 112.5 130 L 118 132.5 L 119 136.5 L 119 164.5 L 116.5 169 L 112.5 170 L 109 167.5 L 108 163.5 L 108 136.5 L 110.5 131 L 112.5 130 Z " /><path fill="rgb(253,253,253)" stroke="rgb(253,253,253)" stroke-width="1" opacity="1" d="M 77 131 Q 82 130.2 84 133.5 Q 86.5 137 85 144.5 L 81.5 150 Q 77 150.5 77 149.5 L 77 131 Z " /><path fill="rgb(253,253,253)" stroke="rgb(253,253,253)" stroke-width="1" opacity="1" d="M 207 131 L 213 132 Q 215.3 135.6 214 144.5 L 211.5 148 Q 207 148.5 207 147.5 L 207 131 Z " /><path fill="rgb(253,253,253)" stroke="rgb(253,253,253)" stroke-width="1" opacity="1" d="M 47.5 150 L 48 161.5 L 51 175.5 L 50 175.5 L 47 161.5 L 47.5 150 Z " /><path fill="rgb(253,253,253)" stroke="rgb(253,253,253)" stroke-width="1" opacity="1" d="M 239.5 176 L 240 178.5 Q 236.9 190.4 230.5 199 L 231 197.5 L 239.5 176 Z " /><path fill="rgb(253,253,253)" stroke="rgb(253,253,253)" stroke-width="1" opacity="1" d="M 34.5 179 L 37.5 180 L 47 189.5 L 62 215.5 L 65 224.5 L 65 230.5 L 41.5 245 Q 20.3 224 11 192 L 34.5 179 Z " /><path fill="rgb(253,253,253)" stroke="rgb(253,253,253)" stroke-width="1" opacity="1" d="M 255.5 179 L 279 192.5 Q 270.2 224.7 249.5 245 L 226 232 L 226 223.5 L 233 206.5 Q 240.3 191.8 251.5 181 L 255.5 179 Z " /><path fill="rgb(253,253,253)" stroke="rgb(253,253,253)" stroke-width="1" opacity="1" d="M 60.5 199 L 76 219.5 L 72 216.5 L 62 203.5 L 60.5 199 Z " /><path fill="rgb(253,253,253)" stroke="rgb(253,253,253)" stroke-width="1" opacity="1" d="M 214.5 219 L 207.5 227 L 194.5 235 L 194.5 234 Q 206.2 228.2 214.5 219 Z " /><path fill="rgb(253,253,253)" stroke="rgb(253,253,253)" stroke-width="1" opacity="1" d="M 96.5 235 L 120 244.5 L 117.5 245 L 96.5 236 L 96.5 235 Z " /><path fill="rgb(253,253,253)" stroke="rgb(253,253,253)" stroke-width="1" opacity="1" d="M 170.5 244 L 169.5 246 L 159.5 248 L 150.5 248 L 150.5 247 L 159.5 247 L 170.5 244 Z " /><path fill="rgb(253,253,253)" stroke="rgb(253,253,253)" stroke-width="1" opacity="1" d="M 130.5 255 L 160.5 255 L 170.5 257 L 176 261.5 L 176 286.5 L 174.5 288 L 163.5 290 L 154.5 290 L 153.5 291 L 136.5 291 L 135.5 290 L 126.5 290 L 115 288 L 115 260.5 L 116.5 259 L 130.5 255 Z " /><path fill="rgb(148,106,104)" stroke="rgb(148,106,104)" stroke-width="1" opacity="1" d="M 130.5 9 L 135 9.5 L 130.5 10 L 130.5 9 Z " /><path fill="rgb(148,106,104)" stroke="rgb(148,106,104)" stroke-width="1" opacity="1" d="M 156.5 9 L 160 9.5 L 156.5 10 L 156.5 9 Z " /><path fill="rgb(148,106,104)" stroke="rgb(148,106,104)" stroke-width="1" opacity="1" d="M 165.5 10 L 168 10.5 L 165.5 11 L 165.5 10 Z " /><path fill="rgb(148,106,104)" stroke="rgb(148,106,104)" stroke-width="1" opacity="1" d="M 114.5 13 L 115 38.5 L 114 38.5 L 114.5 13 Z " /><path fill="rgb(148,106,104)" stroke="rgb(148,106,104)" stroke-width="1" opacity="1" d="M 115.5 40 L 116.5 42 L 115.5 40 Z " /><path fill="rgb(148,106,104)" stroke="rgb(148,106,104)" stroke-width="1" opacity="1" d="M 131.5 45 L 134 45.5 L 131.5 46 L 131.5 45 Z " /><path fill="rgb(148,106,104)" stroke="rgb(148,106,104)" stroke-width="1" opacity="1" d="M 157.5 45 L 160 45.5 L 157.5 46 L 157.5 45 Z " /><path fill="rgb(148,106,104)" stroke="rgb(148,106,104)" stroke-width="1" opacity="1" d="M 135.5 51 L 140 51.5 L 135.5 52 L 135.5 51 Z " /><path fill="rgb(148,106,104)" stroke="rgb(148,106,104)" stroke-width="1" opacity="1" d="M 134.5 53 L 137 53.5 L 134.5 54 L 134.5 53 Z " /><path fill="rgb(148,106,104)" stroke="rgb(148,106,104)" stroke-width="1" opacity="1" d="M 40.5 55 L 38.5 58 L 40.5 55 Z " /><path fill="rgb(148,106,104)" stroke="rgb(148,106,104)" stroke-width="1" opacity="1" d="M 135.5 58 L 138 58.5 L 135.5 59 L 135.5 58 Z " /><path fill="rgb(148,106,104)" stroke="rgb(148,106,104)" stroke-width="1" opacity="1" d="M 152.5 58 L 156 58.5 L 152.5 59 L 152.5 58 Z " /><path fill="rgb(148,106,104)" stroke="rgb(148,106,104)" stroke-width="1" opacity="1" d="M 254.5 60 L 255.5 62 L 254.5 60 Z " /><path fill="rgb(148,106,104)" stroke="rgb(148,106,104)" stroke-width="1" opacity="1" d="M 34.5 62 L 33.5 64 L 34.5 62 Z " /><path fill="rgb(148,106,104)" stroke="rgb(148,106,104)" stroke-width="1" opacity="1" d="M 90.5 67 L 89.5 69 L 90.5 67 Z " /><path fill="rgb(148,106,104)" stroke="rgb(148,106,104)" stroke-width="1" opacity="1" d="M 148.5 68 L 149 80.5 L 146.5 82 L 146.5 81 L 148 80.5 L 148.5 68 Z " /><path fill="rgb(148,106,104)" stroke="rgb(148,106,104)" stroke-width="1" opacity="1" d="M 153.5 68 L 153 69.5 L 152.5 81 L 152 69.5 L 153.5 68 Z " /><path fill="rgb(148,106,104)" stroke="rgb(148,106,104)" stroke-width="1" opacity="1" d="M 167.5 68 Q 169.8 67.3 169 69.5 L 166 69.5 L 167.5 68 Z " /><path fill="rgb(148,106,104)" stroke="rgb(148,106,104)" stroke-width="1" opacity="1" d="M 260.5 68 L 261.5 70 L 260.5 68 Z " /><path fill="rgb(148,106,104)" stroke="rgb(148,106,104)" stroke-width="1" opacity="1" d="M 156.5 69 L 157 81.5 L 156 81.5 L 156.5 69 Z " /><path fill="rgb(148,106,104)" stroke="rgb(148,106,104)" stroke-width="1" opacity="1" d="M 89.5 70 L 88.5 72 L 89.5 70 Z " /><path fill="rgb(148,106,104)" stroke="rgb(148,106,104)" stroke-width="1" opacity="1" d="M 162.5 71 L 163 79.5 L 161 80.5 L 162 79.5 L 162.5 71 Z " /><path fill="rgb(148,106,104)" stroke="rgb(148,106,104)" stroke-width="1" opacity="1" d="M 82.5 73 L 81.5 75 L 82.5 73 Z " /><path fill="rgb(148,106,104)" stroke="rgb(148,106,104)" stroke-width="1" opacity="1" d="M 85.5 73 L 84.5 75 L 85.5 73 Z " /><path fill="rgb(148,106,104)" stroke="rgb(148,106,104)" stroke-width="1" opacity="1" d="M 141.5 73 L 140.5 75 L 141.5 73 Z " /><path fill="rgb(148,106,104)" stroke="rgb(148,106,104)" stroke-width="1" opacity="1" d="M 92.5 74 L 91.5 76 L 92.5 74 Z " /><path fill="rgb(148,106,104)" stroke="rgb(148,106,104)" stroke-width="1" opacity="1" d="M 105.5 74 L 107 74.5 L 107 91.5 L 106 91.5 L 106 75.5 L 105.5 74 Z " /><path fill="rgb(148,106,104)" stroke="rgb(148,106,104)" stroke-width="1" opacity="1" d="M 173.5 74 L 174 83.5 L 175 84.5 L 173 83.5 L 173.5 74 Z " /><path fill="rgb(148,106,104)" stroke="rgb(148,106,104)" stroke-width="1" opacity="1" d="M 177.5 75 L 178 85.5 L 177 85.5 L 177.5 75 Z " /><path fill="rgb(148,106,104)" stroke="rgb(148,106,104)" stroke-width="1" opacity="1" d="M 199.5 75 L 200.5 77 L 199.5 75 Z " /><path fill="rgb(148,106,104)" stroke="rgb(148,106,104)" stroke-width="1" opacity="1" d="M 111.5 76 L 113 77.5 L 113 85.5 L 112 85.5 Q 112.7 78 111.5 76 Z " /><path fill="rgb(148,106,104)" stroke="rgb(148,106,104)" stroke-width="1" opacity="1" d="M 125.5 76 L 126 79.5 L 125 79.5 L 125.5 76 Z " /><path fill="rgb(148,106,104)" stroke="rgb(148,106,104)" stroke-width="1" opacity="1" d="M 88.5 77 L 87.5 79 L 88.5 77 Z " /><path fill="rgb(148,106,104)" stroke="rgb(148,106,104)" stroke-width="1" opacity="1" d="M 79.5 78 L 76.5 82 L 75 81.5 L 79.5 78 Z " /><path fill="rgb(148,106,104)" stroke="rgb(148,106,104)" stroke-width="1" opacity="1" d="M 100.5 79 L 99.5 81 L 100.5 79 Z " /><path fill="rgb(148,106,104)" stroke="rgb(148,106,104)" stroke-width="1" opacity="1" d="M 204.5 79 L 205.5 81 L 204.5 79 Z " /><path fill="rgb(148,106,104)" stroke="rgb(148,106,104)" stroke-width="1" opacity="1" d="M 102.5 80 L 103 85.5 L 102 85.5 L 102.5 80 Z " /><path fill="rgb(148,106,104)" stroke="rgb(148,106,104)" stroke-width="1" opacity="1" d="M 187.5 80 L 188 82.5 L 187 82.5 L 187.5 80 Z " /><path fill="rgb(148,106,104)" stroke="rgb(148,106,104)" stroke-width="1" opacity="1" d="M 195.5 82 L 196 95.5 L 195 95.5 L 195.5 82 Z " /><path fill="rgb(148,106,104)" stroke="rgb(148,106,104)" stroke-width="1" opacity="1" d="M 217.5 82 L 220.5 86 L 217.5 82 Z " /><path fill="rgb(148,106,104)" stroke="rgb(148,106,104)" stroke-width="1" opacity="1" d="M 191.5 83 L 192 85.5 L 190 84.5 L 191.5 83 Z " /><path fill="rgb(148,106,104)" stroke="rgb(148,106,104)" stroke-width="1" opacity="1" d="M 98.5 84 L 99 95.5 L 98 95.5 L 98.5 84 Z " /><path fill="rgb(148,106,104)" stroke="rgb(148,106,104)" stroke-width="1" opacity="1" d="M 90.5 85 L 89.5 87 L 90.5 85 Z " /><path fill="rgb(148,106,104)" stroke="rgb(148,106,104)" stroke-width="1" opacity="1" d="M 94.5 86 L 95 94.5 L 94 94.5 L 94.5 86 Z " /><path fill="rgb(148,106,104)" stroke="rgb(148,106,104)" stroke-width="1" opacity="1" d="M 189.5 86 L 191 88.5 L 189 87.5 L 189.5 86 Z " /><path fill="rgb(148,106,104)" stroke="rgb(148,106,104)" stroke-width="1" opacity="1" d="M 86.5 87 L 87 94.5 L 86 94.5 L 86.5 87 Z " /><path fill="rgb(148,106,104)" stroke="rgb(148,106,104)" stroke-width="1" opacity="1" d="M 174.5 87 L 177 87.5 L 174.5 88 L 174.5 87 Z " /><path fill="rgb(148,106,104)" stroke="rgb(148,106,104)" stroke-width="1" opacity="1" d="M 219.5 87 L 220.5 89 L 219.5 87 Z " /><path fill="rgb(148,106,104)" stroke="rgb(148,106,104)" stroke-width="1" opacity="1" d="M 187.5 88 L 188 90.5 L 187 90.5 L 187.5 88 Z " /><path fill="rgb(148,106,104)" stroke="rgb(148,106,104)" stroke-width="1" opacity="1" d="M 199.5 88 L 200 98.5 L 199 98.5 L 199.5 88 Z " /><path fill="rgb(148,106,104)" stroke="rgb(148,106,104)" stroke-width="1" opacity="1" d="M 214.5 89 L 216.5 92 L 214.5 89 Z " /><path fill="rgb(148,106,104)" stroke="rgb(148,106,104)" stroke-width="1" opacity="1" d="M 223.5 89 L 224.5 91 L 223.5 89 Z " /><path fill="rgb(148,106,104)" stroke="rgb(148,106,104)" stroke-width="1" opacity="1" d="M 148.5 91 L 158 91.5 L 148.5 92 L 148.5 91 Z " /><path fill="rgb(148,106,104)" stroke="rgb(148,106,104)" stroke-width="1" opacity="1" d="M 73.5 92 L 72.5 94 L 73.5 92 Z " /><path fill="rgb(148,106,104)" stroke="rgb(148,106,104)" stroke-width="1" opacity="1" d="M 79.5 92 L 80 100.5 L 79 100.5 L 79.5 92 Z " /><path fill="rgb(148,106,104)" stroke="rgb(148,106,104)" stroke-width="1" opacity="1" d="M 143.5 92 L 144.5 94 L 143.5 92 Z " /><path fill="rgb(148,106,104)" stroke="rgb(148,106,104)" stroke-width="1" opacity="1" d="M 209.5 93 L 210.5 95 L 209.5 93 Z " /><path fill="rgb(148,106,104)" stroke="rgb(148,106,104)" stroke-width="1" opacity="1" d="M 138.5 95 L 141 96.5 L 141 108.5 L 139.5 110 L 138 109.5 L 140 109 L 140 96.5 L 138.5 96 L 138.5 95 Z " /><path fill="rgb(148,106,104)" stroke="rgb(148,106,104)" stroke-width="1" opacity="1" d="M 153.5 95 L 157 95.5 L 153.5 96 L 153.5 95 Z " /><path fill="rgb(148,106,104)" stroke="rgb(148,106,104)" stroke-width="1" opacity="1" d="M 83.5 99 L 84 101 L 82 100.5 L 83.5 99 Z " /><path fill="rgb(148,106,104)" stroke="rgb(148,106,104)" stroke-width="1" opacity="1" d="M 157.5 100 L 158 102.5 Q 157.3 104.8 153.5 104 L 153.5 103 Q 158.5 104.5 157.5 100 Z " /><path fill="rgb(148,106,104)" stroke="rgb(148,106,104)" stroke-width="1" opacity="1" d="M 84.5 103 L 83.5 105 L 84.5 103 Z " /><path fill="rgb(148,106,104)" stroke="rgb(148,106,104)" stroke-width="1" opacity="1" d="M 211.5 107 L 212.5 109 L 211.5 107 Z " /><path fill="rgb(148,106,104)" stroke="rgb(148,106,104)" stroke-width="1" opacity="1" d="M 46.5 111 L 45.5 113 L 46.5 111 Z " /><path fill="rgb(148,106,104)" stroke="rgb(148,106,104)" stroke-width="1" opacity="1" d="M 137.5 113 L 142 113.5 L 137.5 114 L 137.5 113 Z " /><path fill="rgb(148,106,104)" stroke="rgb(148,106,104)" stroke-width="1" opacity="1" d="M 148.5 113 L 152 113.5 L 148.5 114 L 148.5 113 Z " /><path fill="rgb(148,106,104)" stroke="rgb(148,106,104)" stroke-width="1" opacity="1" d="M 246.5 114 L 250.5 119 L 246.5 114 Z " /><path fill="rgb(148,106,104)" stroke="rgb(148,106,104)" stroke-width="1" opacity="1" d="M 225.5 118 L 226.5 120 L 225.5 118 Z " /><path fill="rgb(148,106,104)" stroke="rgb(148,106,104)" stroke-width="1" opacity="1" d="M 51.5 124 L 50.5 126 L 51.5 124 Z " /><path fill="rgb(148,106,104)" stroke="rgb(148,106,104)" stroke-width="1" opacity="1" d="M 117.5 129 L 117.5 132 Q 114.5 130.5 117.5 129 Z " /><path fill="rgb(148,106,104)" stroke="rgb(148,106,104)" stroke-width="1" opacity="1" d="M 67.5 131 L 68 168.5 L 64.5 170 L 64.5 169 L 67 168.5 L 67.5 131 Z " /><path fill="rgb(148,106,104)" stroke="rgb(148,106,104)" stroke-width="1" opacity="1" d="M 76.5 131 L 77 149.5 L 76 149.5 L 76.5 131 Z " /><path fill="rgb(148,106,104)" stroke="rgb(148,106,104)" stroke-width="1" opacity="1" d="M 143.5 131 L 144 147.5 L 145 148.5 L 143 149 L 143.5 131 Z " /><path fill="rgb(148,106,104)" stroke="rgb(148,106,104)" stroke-width="1" opacity="1" d="M 154.5 131 L 155.5 133 L 154.5 131 Z " /><path fill="rgb(148,106,104)" stroke="rgb(148,106,104)" stroke-width="1" opacity="1" d="M 168.5 131 L 169 168.5 L 167 169.5 L 168 168.5 L 168.5 131 Z " /><path fill="rgb(148,106,104)" stroke="rgb(148,106,104)" stroke-width="1" opacity="1" d="M 197.5 131 L 198 168.5 L 194.5 170 L 194.5 169 L 197 168.5 L 197.5 131 Z " /><path fill="rgb(148,106,104)" stroke="rgb(148,106,104)" stroke-width="1" opacity="1" d="M 91.5 132 L 93.5 135 L 91.5 132 Z " /><path fill="rgb(148,106,104)" stroke="rgb(148,106,104)" stroke-width="1" opacity="1" d="M 54.5 133 L 55 135.5 L 54 135.5 L 54.5 133 Z " /><path fill="rgb(148,106,104)" stroke="rgb(148,106,104)" stroke-width="1" opacity="1" d="M 236.5 135 L 237 137.5 L 236 137.5 L 236.5 135 Z " /><path fill="rgb(148,106,104)" stroke="rgb(148,106,104)" stroke-width="1" opacity="1" d="M 214.5 137 L 215 142.5 L 214 142.5 L 214.5 137 Z " /><path fill="rgb(148,106,104)" stroke="rgb(148,106,104)" stroke-width="1" opacity="1" d="M 95.5 139 L 96 141.5 L 95 141.5 L 95.5 139 Z " /><path fill="rgb(148,106,104)" stroke="rgb(148,106,104)" stroke-width="1" opacity="1" d="M 53.5 140 L 54 145.5 L 53 145.5 L 53.5 140 Z " /><path fill="rgb(148,106,104)" stroke="rgb(148,106,104)" stroke-width="1" opacity="1" d="M 107.5 142 L 108 157.5 L 107 157.5 L 107.5 142 Z " /><path fill="rgb(148,106,104)" stroke="rgb(148,106,104)" stroke-width="1" opacity="1" d="M 242.5 143 L 243 149.5 L 242 149.5 L 242.5 143 Z " /><path fill="rgb(148,106,104)" stroke="rgb(148,106,104)" stroke-width="1" opacity="1" d="M 237.5 145 L 238 154.5 L 237 154.5 L 237.5 145 Z " /><path fill="rgb(148,106,104)" stroke="rgb(148,106,104)" stroke-width="1" opacity="1" d="M 143 150 L 145 150.5 L 144 151.5 L 144 169 L 147 169.5 L 144.5 170 L 143 168.5 L 143 150 Z " /><path fill="rgb(148,106,104)" stroke="rgb(148,106,104)" stroke-width="1" opacity="1" d="M 211.5 150 L 212.5 152 L 211.5 150 Z " /><path fill="rgb(148,106,104)" stroke="rgb(148,106,104)" stroke-width="1" opacity="1" d="M 77.5 151 L 82 151.5 L 77 152 L 77 168.5 L 79.5 169 L 79.5 170 L 76 168.5 L 76 152.5 L 77.5 151 Z " /><path fill="rgb(148,106,104)" stroke="rgb(148,106,104)" stroke-width="1" opacity="1" d="M 218.5 151 L 220.5 154 L 218.5 151 Z " /><path fill="rgb(148,106,104)" stroke="rgb(148,106,104)" stroke-width="1" opacity="1" d="M 53.5 154 L 54 159.5 L 53 159.5 L 53.5 154 Z " /><path fill="rgb(148,106,104)" stroke="rgb(148,106,104)" stroke-width="1" opacity="1" d="M 46.5 155 L 47 158.5 L 46 158.5 L 46.5 155 Z " /><path fill="rgb(148,106,104)" stroke="rgb(148,106,104)" stroke-width="1" opacity="1" d="M 48.5 157 L 49 160.5 L 48 160.5 L 48.5 157 Z " /><path fill="rgb(148,106,104)" stroke="rgb(148,106,104)" stroke-width="1" opacity="1" d="M 236.5 162 L 237 164.5 L 236 164.5 L 236.5 162 Z " /><path fill="rgb(148,106,104)" stroke="rgb(148,106,104)" stroke-width="1" opacity="1" d="M 54.5 164 L 55 166.5 L 54 166.5 L 54.5 164 Z " /><path fill="rgb(148,106,104)" stroke="rgb(148,106,104)" stroke-width="1" opacity="1" d="M 49.5 165 L 50 167.5 L 49 167.5 L 49.5 165 Z " /><path fill="rgb(148,106,104)" stroke="rgb(148,106,104)" stroke-width="1" opacity="1" d="M 102.5 165 L 105.5 169 L 102.5 165 Z " /><path fill="rgb(148,106,104)" stroke="rgb(148,106,104)" stroke-width="1" opacity="1" d="M 123.5 166 L 121.5 169 L 123.5 166 Z " /><path fill="rgb(148,106,104)" stroke="rgb(148,106,104)" stroke-width="1" opacity="1" d="M 109.5 168 Q 112.5 169.5 109.5 171 L 109.5 168 Z " /><path fill="rgb(148,106,104)" stroke="rgb(148,106,104)" stroke-width="1" opacity="1" d="M 117.5 168 L 117.5 171 Q 114.5 169.5 117.5 168 Z " /><path fill="rgb(148,106,104)" stroke="rgb(148,106,104)" stroke-width="1" opacity="1" d="M 216.5 168 L 217.5 170 L 216.5 168 Z " /><path fill="rgb(148,106,104)" stroke="rgb(148,106,104)" stroke-width="1" opacity="1" d="M 207.5 169 L 210 169.5 L 207.5 170 L 207.5 169 Z " /><path fill="rgb(148,106,104)" stroke="rgb(148,106,104)" stroke-width="1" opacity="1" d="M 225.5 178 L 226.5 180 L 225.5 178 Z " /><path fill="rgb(148,106,104)" stroke="rgb(148,106,104)" stroke-width="1" opacity="1" d="M 249.5 182 L 248.5 184 L 249.5 182 Z " /><path fill="rgb(148,106,104)" stroke="rgb(148,106,104)" stroke-width="1" opacity="1" d="M 44.5 186 L 45.5 188 L 44.5 186 Z " /><path fill="rgb(148,106,104)" stroke="rgb(148,106,104)" stroke-width="1" opacity="1" d="M 244.5 188 L 243.5 190 L 244.5 188 Z " /><path fill="rgb(148,106,104)" stroke="rgb(148,106,104)" stroke-width="1" opacity="1" d="M 190.5 194 L 194 194.5 L 190.5 195 L 190.5 194 Z " /><path fill="rgb(148,106,104)" stroke="rgb(148,106,104)" stroke-width="1" opacity="1" d="M 164.5 195 L 167 195.5 L 164.5 196 L 164.5 195 Z " /><path fill="rgb(148,106,104)" stroke="rgb(148,106,104)" stroke-width="1" opacity="1" d="M 157.5 196 L 158.5 198 L 157.5 196 Z " /><path fill="rgb(148,106,104)" stroke="rgb(148,106,104)" stroke-width="1" opacity="1" d="M 60.5 198 L 61.5 200 L 59 199.5 L 60.5 198 Z " /><path fill="rgb(148,106,104)" stroke="rgb(148,106,104)" stroke-width="1" opacity="1" d="M 127.5 198 L 125.5 201 L 127.5 198 Z " /><path fill="rgb(148,106,104)" stroke="rgb(148,106,104)" stroke-width="1" opacity="1" d="M 100.5 199 L 101.5 201 L 100.5 199 Z " /><path fill="rgb(148,106,104)" stroke="rgb(148,106,104)" stroke-width="1" opacity="1" d="M 149.5 199 L 150 202.5 L 149 202.5 L 149.5 199 Z " /><path fill="rgb(148,106,104)" stroke="rgb(148,106,104)" stroke-width="1" opacity="1" d="M 133.5 200 L 134.5 202 L 133.5 200 Z " /><path fill="rgb(148,106,104)" stroke="rgb(148,106,104)" stroke-width="1" opacity="1" d="M 69.5 202 L 70.5 204 L 69.5 202 Z " /><path fill="rgb(148,106,104)" stroke="rgb(148,106,104)" stroke-width="1" opacity="1" d="M 185.5 203 L 188 203.5 L 185.5 204 L 185.5 203 Z " /><path fill="rgb(148,106,104)" stroke="rgb(148,106,104)" stroke-width="1" opacity="1" d="M 183.5 204 L 182.5 206 L 183.5 204 Z " /><path fill="rgb(148,106,104)" stroke="rgb(148,106,104)" stroke-width="1" opacity="1" d="M 168.5 205 L 165.5 209 L 168.5 205 Z " /><path fill="rgb(148,106,104)" stroke="rgb(148,106,104)" stroke-width="1" opacity="1" d="M 72.5 206 L 73.5 208 L 72.5 206 Z " /><path fill="rgb(148,106,104)" stroke="rgb(148,106,104)" stroke-width="1" opacity="1" d="M 64.5 207 L 65.5 209 L 64.5 207 Z " /><path fill="rgb(148,106,104)" stroke="rgb(148,106,104)" stroke-width="1" opacity="1" d="M 202.5 207 L 203 209.5 L 202 209.5 L 202.5 207 Z " /><path fill="rgb(148,106,104)" stroke="rgb(148,106,104)" stroke-width="1" opacity="1" d="M 90.5 208 L 91.5 210 L 90.5 208 Z " /><path fill="rgb(148,106,104)" stroke="rgb(148,106,104)" stroke-width="1" opacity="1" d="M 216.5 208 L 215.5 210 L 216.5 208 Z " /><path fill="rgb(148,106,104)" stroke="rgb(148,106,104)" stroke-width="1" opacity="1" d="M 155.5 209 L 158.5 213 L 155.5 209 Z " /><path fill="rgb(148,106,104)" stroke="rgb(148,106,104)" stroke-width="1" opacity="1" d="M 101.5 210 L 100.5 212 L 101.5 210 Z " /><path fill="rgb(148,106,104)" stroke="rgb(148,106,104)" stroke-width="1" opacity="1" d="M 129.5 210 L 131.5 213 L 129 212 L 129.5 210 Z " /><path fill="rgb(148,106,104)" stroke="rgb(148,106,104)" stroke-width="1" opacity="1" d="M 67.5 211 L 69.5 214 L 67.5 211 Z " /><path fill="rgb(148,106,104)" stroke="rgb(148,106,104)" stroke-width="1" opacity="1" d="M 120.5 211 L 121.5 213 L 120.5 211 Z " /><path fill="rgb(148,106,104)" stroke="rgb(148,106,104)" stroke-width="1" opacity="1" d="M 191.5 211 L 194 212.5 L 191.5 214 L 191.5 211 Z " /><path fill="rgb(148,106,104)" stroke="rgb(148,106,104)" stroke-width="1" opacity="1" d="M 77.5 212 L 83.5 219 L 77.5 212 Z " /><path fill="rgb(148,106,104)" stroke="rgb(148,106,104)" stroke-width="1" opacity="1" d="M 123.5 213 L 126 213.5 L 123.5 214 L 123.5 213 Z " /><path fill="rgb(148,106,104)" stroke="rgb(148,106,104)" stroke-width="1" opacity="1" d="M 160.5 213 L 159.5 215 L 160.5 213 Z " /><path fill="rgb(148,106,104)" stroke="rgb(148,106,104)" stroke-width="1" opacity="1" d="M 72.5 214 L 77 219.5 L 76 219.5 L 72.5 214 Z " /><path fill="rgb(148,106,104)" stroke="rgb(148,106,104)" stroke-width="1" opacity="1" d="M 204.5 220 L 203.5 222 L 204.5 220 Z " /><path fill="rgb(148,106,104)" stroke="rgb(148,106,104)" stroke-width="1" opacity="1" d="M 211.5 223 L 209.5 226 L 211.5 223 Z " /><path fill="rgb(148,106,104)" stroke="rgb(148,106,104)" stroke-width="1" opacity="1" d="M 207.5 224 L 206.5 226 L 207.5 224 Z " /><path fill="rgb(148,106,104)" stroke="rgb(148,106,104)" stroke-width="1" opacity="1" d="M 205.5 228 L 204.5 230 L 205.5 228 Z " /><path fill="rgb(148,106,104)" stroke="rgb(148,106,104)" stroke-width="1" opacity="1" d="M 199.5 230 L 198.5 232 L 199.5 230 Z " /><path fill="rgb(148,106,104)" stroke="rgb(148,106,104)" stroke-width="1" opacity="1" d="M 33.5 236 L 34.5 238 L 33.5 236 Z " /><path fill="rgb(148,106,104)" stroke="rgb(148,106,104)" stroke-width="1" opacity="1" d="M 255.5 238 L 254.5 240 L 255.5 238 Z " /><path fill="rgb(148,106,104)" stroke="rgb(148,106,104)" stroke-width="1" opacity="1" d="M 37.5 241 L 39.5 244 L 37.5 241 Z " /><path fill="rgb(148,106,104)" stroke="rgb(148,106,104)" stroke-width="1" opacity="1" d="M 133.5 241 L 137 241.5 L 133.5 242 L 133.5 241 Z " /><path fill="rgb(148,106,104)" stroke="rgb(148,106,104)" stroke-width="1" opacity="1" d="M 154.5 241 L 157 241.5 L 154.5 242 L 154.5 241 Z " /><path fill="rgb(148,106,104)" stroke="rgb(148,106,104)" stroke-width="1" opacity="1" d="M 120.5 244 L 119.5 246 L 118 245.5 L 120.5 244 Z " /><path fill="rgb(148,106,104)" stroke="rgb(148,106,104)" stroke-width="1" opacity="1" d="M 155.5 246 L 158 246.5 L 155.5 247 L 155.5 246 Z " /><path fill="rgb(148,106,104)" stroke="rgb(148,106,104)" stroke-width="1" opacity="1" d="M 153.5 248 L 157 248.5 L 153.5 249 L 153.5 248 Z " /><path fill="rgb(148,106,104)" stroke="rgb(148,106,104)" stroke-width="1" opacity="1" d="M 132.5 254 L 136 254.5 L 132.5 255 L 132.5 254 Z " /><path fill="rgb(148,106,104)" stroke="rgb(148,106,104)" stroke-width="1" opacity="1" d="M 155.5 254 L 159 254.5 L 155.5 255 L 155.5 254 Z " /><path fill="rgb(148,106,104)" stroke="rgb(148,106,104)" stroke-width="1" opacity="1" d="M 114.5 261 L 115 286.5 L 114 286.5 L 114.5 261 Z " /><path fill="rgb(148,106,104)" stroke="rgb(148,106,104)" stroke-width="1" opacity="1" d="M 166.5 289 L 169 289.5 L 166.5 290 L 166.5 289 Z " /><path fill="rgb(148,106,104)" stroke="rgb(148,106,104)" stroke-width="1" opacity="1" d="M 129.5 290 L 133 290.5 L 129.5 291 L 129.5 290 Z " /><path fill="rgb(148,106,104)" stroke="rgb(148,106,104)" stroke-width="1" opacity="1" d="M 158.5 290 L 162 290.5 L 158.5 291 L 158.5 290 Z " /><path fill="rgb(189,172,171)" stroke="rgb(189,172,171)" stroke-width="1" opacity="1" d="M 135.5 9 L 139 9.5 L 135.5 10 L 135.5 9 Z " /><path fill="rgb(189,172,171)" stroke="rgb(189,172,171)" stroke-width="1" opacity="1" d="M 151.5 9 L 156 9.5 L 151.5 10 L 151.5 9 Z " /><path fill="rgb(189,172,171)" stroke="rgb(189,172,171)" stroke-width="1" opacity="1" d="M 125.5 10 L 128 10.5 L 125.5 11 L 125.5 10 Z " /><path fill="rgb(189,172,171)" stroke="rgb(189,172,171)" stroke-width="1" opacity="1" d="M 162.5 44 L 165 44.5 L 162.5 45 L 162.5 44 Z " /><path fill="rgb(189,172,171)" stroke="rgb(189,172,171)" stroke-width="1" opacity="1" d="M 134.5 45 L 141 45.5 L 134.5 46 L 134.5 45 Z " /><path fill="rgb(189,172,171)" stroke="rgb(189,172,171)" stroke-width="1" opacity="1" d="M 152.5 45 L 157 45.5 L 152.5 46 L 152.5 45 Z " /><path fill="rgb(189,172,171)" stroke="rgb(189,172,171)" stroke-width="1" opacity="1" d="M 140.5 51 Q 145 50 146 52.5 L 144.5 52 Q 139.5 53 140.5 51 Z " /><path fill="rgb(189,172,171)" stroke="rgb(189,172,171)" stroke-width="1" opacity="1" d="M 130.5 52 L 134 53.5 L 132.5 54 L 130.5 52 Z " /><path fill="rgb(189,172,171)" stroke="rgb(189,172,171)" stroke-width="1" opacity="1" d="M 125.5 53 L 128 54.5 L 126.5 55 L 125.5 53 Z " /><path fill="rgb(189,172,171)" stroke="rgb(189,172,171)" stroke-width="1" opacity="1" d="M 120.5 54 L 123 55.5 L 121.5 56 L 119 55.5 L 120.5 54 Z " /><path fill="rgb(189,172,171)" stroke="rgb(189,172,171)" stroke-width="1" opacity="1" d="M 173.5 55 L 172.5 57 L 173.5 55 Z " /><path fill="rgb(189,172,171)" stroke="rgb(189,172,171)" stroke-width="1" opacity="1" d="M 176.5 56 L 175.5 58 L 176.5 56 Z " /><path fill="rgb(189,172,171)" stroke="rgb(189,172,171)" stroke-width="1" opacity="1" d="M 179.5 57 L 178.5 59 L 179.5 57 Z " /><path fill="rgb(189,172,171)" stroke="rgb(189,172,171)" stroke-width="1" opacity="1" d="M 251.5 57 L 253.5 60 L 251.5 57 Z " /><path fill="rgb(189,172,171)" stroke="rgb(189,172,171)" stroke-width="1" opacity="1" d="M 138.5 58 L 152 58.5 L 138.5 59 L 138.5 58 Z " /><path fill="rgb(189,172,171)" stroke="rgb(189,172,171)" stroke-width="1" opacity="1" d="M 158.5 59 L 161 59.5 L 158.5 60 L 158.5 59 Z " /><path fill="rgb(189,172,171)" stroke="rgb(189,172,171)" stroke-width="1" opacity="1" d="M 184.5 59 L 183.5 61 L 184.5 59 Z " /><path fill="rgb(189,172,171)" stroke="rgb(189,172,171)" stroke-width="1" opacity="1" d="M 36.5 60 L 35.5 62 L 36.5 60 Z " /><path fill="rgb(189,172,171)" stroke="rgb(189,172,171)" stroke-width="1" opacity="1" d="M 186.5 60 L 185.5 62 L 186.5 60 Z " /><path fill="rgb(189,172,171)" stroke="rgb(189,172,171)" stroke-width="1" opacity="1" d="M 256.5 63 L 257.5 65 L 256.5 63 Z " /><path fill="rgb(189,172,171)" stroke="rgb(189,172,171)" stroke-width="1" opacity="1" d="M 130.5 64 L 130 65.5 L 130 82.5 L 131 83.5 L 129 82.5 L 129 65.5 L 130.5 64 Z " /><path fill="rgb(189,172,171)" stroke="rgb(189,172,171)" stroke-width="1" opacity="1" d="M 194.5 64 L 195 66 L 193 65.5 L 194.5 64 Z " /><path fill="rgb(189,172,171)" stroke="rgb(189,172,171)" stroke-width="1" opacity="1" d="M 94.5 65 L 97 65.5 Q 94.9 68.8 94.5 65 Z " /><path fill="rgb(189,172,171)" stroke="rgb(189,172,171)" stroke-width="1" opacity="1" d="M 166.5 66 L 167 68.5 L 166 68.5 L 166.5 66 Z " /><path fill="rgb(189,172,171)" stroke="rgb(189,172,171)" stroke-width="1" opacity="1" d="M 144.5 67 L 145 81.5 L 144 81.5 L 144.5 67 Z " /><path fill="rgb(189,172,171)" stroke="rgb(189,172,171)" stroke-width="1" opacity="1" d="M 163.5 67 L 164.5 69 L 163.5 67 Z " /><path fill="rgb(189,172,171)" stroke="rgb(189,172,171)" stroke-width="1" opacity="1" d="M 136.5 68 L 138 78.5 L 135.5 83 L 133.5 82 L 132 82.5 L 132 70.5 L 134 70 L 134 81.5 L 136 82 L 136.5 68 Z " /><path fill="rgb(189,172,171)" stroke="rgb(189,172,171)" stroke-width="1" opacity="1" d="M 141.5 68 L 142 69.5 L 138 72.5 L 138.5 70 L 141.5 68 Z " /><path fill="rgb(189,172,171)" stroke="rgb(189,172,171)" stroke-width="1" opacity="1" d="M 166.5 70 L 167 82.5 L 166 82.5 L 166.5 70 Z " /><path fill="rgb(189,172,171)" stroke="rgb(189,172,171)" stroke-width="1" opacity="1" d="M 169.5 70 L 170 84.5 L 168 85.5 L 169 84.5 L 169.5 70 Z " /><path fill="rgb(189,172,171)" stroke="rgb(189,172,171)" stroke-width="1" opacity="1" d="M 225.5 70 L 226 74.5 L 225 74.5 L 225.5 70 Z " /><path fill="rgb(189,172,171)" stroke="rgb(189,172,171)" stroke-width="1" opacity="1" d="M 85.5 71 L 86.5 73 L 84 72.5 L 85.5 71 Z " /><path fill="rgb(189,172,171)" stroke="rgb(189,172,171)" stroke-width="1" opacity="1" d="M 175.5 71 L 176.5 73 L 175.5 71 Z " /><path fill="rgb(189,172,171)" stroke="rgb(189,172,171)" stroke-width="1" opacity="1" d="M 94.5 73 L 93.5 75 L 94.5 73 Z " /><path fill="rgb(189,172,171)" stroke="rgb(189,172,171)" stroke-width="1" opacity="1" d="M 141.5 74 L 142 78 Q 139 79.3 140 75.5 L 141.5 74 Z " /><path fill="rgb(189,172,171)" stroke="rgb(189,172,171)" stroke-width="1" opacity="1" d="M 80.5 75 L 83 75.5 L 80.5 78 L 79.5 77 L 77 78.5 L 80.5 75 Z " /><path fill="rgb(189,172,171)" stroke="rgb(189,172,171)" stroke-width="1" opacity="1" d="M 188.5 78 L 190 78.5 L 187.5 80 L 188.5 78 Z " /><path fill="rgb(189,172,171)" stroke="rgb(189,172,171)" stroke-width="1" opacity="1" d="M 86.5 79 L 84.5 82 L 86.5 79 Z " /><path fill="rgb(189,172,171)" stroke="rgb(189,172,171)" stroke-width="1" opacity="1" d="M 214 80 L 217 81.5 L 216 82.5 L 217.5 85 L 214 80 Z " /><path fill="rgb(189,172,171)" stroke="rgb(189,172,171)" stroke-width="1" opacity="1" d="M 206.5 81 L 213.5 89 L 206.5 81 Z " /><path fill="rgb(189,172,171)" stroke="rgb(189,172,171)" stroke-width="1" opacity="1" d="M 171.5 85 L 172.5 87 L 171.5 85 Z " /><path fill="rgb(189,172,171)" stroke="rgb(189,172,171)" stroke-width="1" opacity="1" d="M 188.5 85 L 187.5 87 L 188.5 85 Z " /><path fill="rgb(189,172,171)" stroke="rgb(189,172,171)" stroke-width="1" opacity="1" d="M 203.5 86 L 204 101.5 L 203 101.5 L 203.5 86 Z " /><path fill="rgb(189,172,171)" stroke="rgb(189,172,171)" stroke-width="1" opacity="1" d="M 84.5 87 L 84 88.5 L 84 98.5 L 82.5 100 L 82 97.5 L 83 96.5 L 83 88.5 L 84.5 87 Z " /><path fill="rgb(189,172,171)" stroke="rgb(189,172,171)" stroke-width="1" opacity="1" d="M 221.5 87 L 223 88.5 L 222.5 91 L 221 89.5 L 221.5 87 Z " /><path fill="rgb(189,172,171)" stroke="rgb(189,172,171)" stroke-width="1" opacity="1" d="M 91.5 88 L 91 89.5 Q 89.5 95 92 96.5 L 90 97 L 90 89.5 L 91.5 88 Z " /><path fill="rgb(189,172,171)" stroke="rgb(189,172,171)" stroke-width="1" opacity="1" d="M 206.5 88 L 207 103.5 L 206 103.5 L 206.5 88 Z " /><path fill="rgb(189,172,171)" stroke="rgb(189,172,171)" stroke-width="1" opacity="1" d="M 76.5 89 L 74.5 92 L 76.5 89 Z " /><path fill="rgb(189,172,171)" stroke="rgb(189,172,171)" stroke-width="1" opacity="1" d="M 108.5 89 L 110.5 90 L 112 89.5 L 109.5 91 L 108.5 89 Z " /><path fill="rgb(189,172,171)" stroke="rgb(189,172,171)" stroke-width="1" opacity="1" d="M 87.5 90 L 88 95.5 L 87 97.5 L 87.5 99 L 86 95.5 L 87.5 90 Z " /><path fill="rgb(189,172,171)" stroke="rgb(189,172,171)" stroke-width="1" opacity="1" d="M 147.5 92 L 148 112.5 L 147 112.5 L 147.5 92 Z " /><path fill="rgb(189,172,171)" stroke="rgb(189,172,171)" stroke-width="1" opacity="1" d="M 225.5 92 L 224.5 94 L 225.5 92 Z " /><path fill="rgb(189,172,171)" stroke="rgb(189,172,171)" stroke-width="1" opacity="1" d="M 217.5 93 L 218.5 95 L 217.5 93 Z " /><path fill="rgb(189,172,171)" stroke="rgb(189,172,171)" stroke-width="1" opacity="1" d="M 212.5 95 L 213.5 97 L 212.5 95 Z " /><path fill="rgb(189,172,171)" stroke="rgb(189,172,171)" stroke-width="1" opacity="1" d="M 145.5 96 L 146 108.5 L 145 108.5 L 145.5 96 Z " /><path fill="rgb(189,172,171)" stroke="rgb(189,172,171)" stroke-width="1" opacity="1" d="M 93.5 98 L 92.5 100 L 93.5 98 Z " /><path fill="rgb(189,172,171)" stroke="rgb(189,172,171)" stroke-width="1" opacity="1" d="M 229.5 98 L 228.5 100 L 229.5 98 Z " /><path fill="rgb(189,172,171)" stroke="rgb(189,172,171)" stroke-width="1" opacity="1" d="M 199.5 99 L 200.5 101 L 199.5 99 Z " /><path fill="rgb(189,172,171)" stroke="rgb(189,172,171)" stroke-width="1" opacity="1" d="M 241.5 107 L 242.5 109 L 241.5 107 Z " /><path fill="rgb(189,172,171)" stroke="rgb(189,172,171)" stroke-width="1" opacity="1" d="M 54.5 111 L 55.5 113 L 54.5 111 Z " /><path fill="rgb(189,172,171)" stroke="rgb(189,172,171)" stroke-width="1" opacity="1" d="M 244.5 111 L 245.5 113 L 244.5 111 Z " /><path fill="rgb(189,172,171)" stroke="rgb(189,172,171)" stroke-width="1" opacity="1" d="M 44.5 113 L 38.5 120 L 44.5 113 Z " /><path fill="rgb(189,172,171)" stroke="rgb(189,172,171)" stroke-width="1" opacity="1" d="M 53.5 113 L 54.5 115 L 53.5 113 Z " /><path fill="rgb(189,172,171)" stroke="rgb(189,172,171)" stroke-width="1" opacity="1" d="M 52.5 116 L 53.5 118 L 52.5 116 Z " /><path fill="rgb(189,172,171)" stroke="rgb(189,172,171)" stroke-width="1" opacity="1" d="M 64.5 118 L 64 119.5 L 63.5 121 L 63 119.5 L 64.5 118 Z " /><path fill="rgb(189,172,171)" stroke="rgb(189,172,171)" stroke-width="1" opacity="1" d="M 51.5 119 L 52.5 121 L 51.5 119 Z " /><path fill="rgb(189,172,171)" stroke="rgb(189,172,171)" stroke-width="1" opacity="1" d="M 50.5 122 L 51.5 124 L 50.5 122 Z " /><path fill="rgb(189,172,171)" stroke="rgb(189,172,171)" stroke-width="1" opacity="1" d="M 240.5 124 L 239.5 126 L 240.5 124 Z " /><path fill="rgb(189,172,171)" stroke="rgb(189,172,171)" stroke-width="1" opacity="1" d="M 241.5 127 L 241 128.5 L 240.5 130 L 240 128.5 L 241.5 127 Z " /><path fill="rgb(189,172,171)" stroke="rgb(189,172,171)" stroke-width="1" opacity="1" d="M 64.5 129 L 83 129.5 L 64.5 130 L 64.5 129 Z " /><path fill="rgb(189,172,171)" stroke="rgb(189,172,171)" stroke-width="1" opacity="1" d="M 132.5 129 L 147 129.5 L 132.5 130 L 131.5 131 L 132.5 129 Z " /><path fill="rgb(189,172,171)" stroke="rgb(189,172,171)" stroke-width="1" opacity="1" d="M 151.5 129 L 163 129.5 L 151.5 130 L 150.5 131 L 151.5 129 Z " /><path fill="rgb(189,172,171)" stroke="rgb(189,172,171)" stroke-width="1" opacity="1" d="M 166.5 129 L 190.5 129 L 192 130.5 L 192 139.5 L 190.5 141 L 191 139.5 L 191 130 L 166.5 130 L 165 130.5 L 166.5 129 Z " /><path fill="rgb(189,172,171)" stroke="rgb(189,172,171)" stroke-width="1" opacity="1" d="M 194.5 129 L 213 129.5 L 194.5 130 L 194.5 129 Z " /><path fill="rgb(189,172,171)" stroke="rgb(189,172,171)" stroke-width="1" opacity="1" d="M 121.5 131 L 124.5 135 L 121.5 131 Z " /><path fill="rgb(189,172,171)" stroke="rgb(189,172,171)" stroke-width="1" opacity="1" d="M 177.5 131 L 178 147.5 L 177 147.5 L 177.5 131 Z " /><path fill="rgb(189,172,171)" stroke="rgb(189,172,171)" stroke-width="1" opacity="1" d="M 206.5 131 L 207 148 L 210 148.5 L 207.5 149 L 206 147.5 L 206.5 131 Z " /><path fill="rgb(189,172,171)" stroke="rgb(189,172,171)" stroke-width="1" opacity="1" d="M 134.5 132 L 135 168.5 L 134 168.5 L 134.5 132 Z " /><path fill="rgb(189,172,171)" stroke="rgb(189,172,171)" stroke-width="1" opacity="1" d="M 185.5 132 L 186.5 134 L 185.5 132 Z " /><path fill="rgb(189,172,171)" stroke="rgb(189,172,171)" stroke-width="1" opacity="1" d="M 242.5 132 L 242 133.5 L 241.5 135 L 241 133.5 L 242.5 132 Z " /><path fill="rgb(189,172,171)" stroke="rgb(189,172,171)" stroke-width="1" opacity="1" d="M 103.5 133 L 102.5 135 L 103.5 133 Z " /><path fill="rgb(189,172,171)" stroke="rgb(189,172,171)" stroke-width="1" opacity="1" d="M 153.5 138 L 152.5 140 L 153.5 138 Z " /><path fill="rgb(189,172,171)" stroke="rgb(189,172,171)" stroke-width="1" opacity="1" d="M 243.5 138 L 244 140.5 L 242.5 143 L 242 141.5 L 243.5 138 Z " /><path fill="rgb(189,172,171)" stroke="rgb(189,172,171)" stroke-width="1" opacity="1" d="M 148.5 142 L 147.5 144 L 148.5 142 Z " /><path fill="rgb(189,172,171)" stroke="rgb(189,172,171)" stroke-width="1" opacity="1" d="M 53.5 146 L 54 153.5 L 53 153.5 L 53.5 146 Z " /><path fill="rgb(189,172,171)" stroke="rgb(189,172,171)" stroke-width="1" opacity="1" d="M 183.5 146 L 182.5 148 L 183.5 146 Z " /><path fill="rgb(189,172,171)" stroke="rgb(189,172,171)" stroke-width="1" opacity="1" d="M 83.5 148 L 82.5 150 L 83.5 148 Z " /><path fill="rgb(189,172,171)" stroke="rgb(189,172,171)" stroke-width="1" opacity="1" d="M 46.5 150 L 47 154.5 L 46 154.5 L 46.5 150 Z " /><path fill="rgb(189,172,171)" stroke="rgb(189,172,171)" stroke-width="1" opacity="1" d="M 177.5 150 L 178 168.5 L 177 168.5 L 177.5 150 Z " /><path fill="rgb(189,172,171)" stroke="rgb(189,172,171)" stroke-width="1" opacity="1" d="M 206.5 150 L 207 168.5 L 206 168.5 L 206.5 150 Z " /><path fill="rgb(189,172,171)" stroke="rgb(189,172,171)" stroke-width="1" opacity="1" d="M 82.5 151 L 85 151.5 L 82.5 152 L 82.5 151 Z " /><path fill="rgb(189,172,171)" stroke="rgb(189,172,171)" stroke-width="1" opacity="1" d="M 182.5 151 L 183.5 153 L 182.5 151 Z " /><path fill="rgb(189,172,171)" stroke="rgb(189,172,171)" stroke-width="1" opacity="1" d="M 213.5 156 L 214 160.5 L 213 160.5 L 213.5 156 Z " /><path fill="rgb(189,172,171)" stroke="rgb(189,172,171)" stroke-width="1" opacity="1" d="M 48.5 161 L 48 162.5 L 47.5 165 L 47 162.5 L 48.5 161 Z " /><path fill="rgb(189,172,171)" stroke="rgb(189,172,171)" stroke-width="1" opacity="1" d="M 223.5 162 L 224 165.5 L 223 165.5 L 223.5 162 Z " /><path fill="rgb(189,172,171)" stroke="rgb(189,172,171)" stroke-width="1" opacity="1" d="M 125.5 164 L 124.5 166 L 125.5 164 Z " /><path fill="rgb(189,172,171)" stroke="rgb(189,172,171)" stroke-width="1" opacity="1" d="M 188.5 164 L 186.5 167 L 188.5 164 Z " /><path fill="rgb(189,172,171)" stroke="rgb(189,172,171)" stroke-width="1" opacity="1" d="M 49.5 168 L 49 169.5 L 48.5 171 L 48 169.5 L 49.5 168 Z " /><path fill="rgb(189,172,171)" stroke="rgb(189,172,171)" stroke-width="1" opacity="1" d="M 131.5 169 L 132.5 170 L 147 170.5 L 132.5 171 L 131.5 169 Z " /><path fill="rgb(189,172,171)" stroke="rgb(189,172,171)" stroke-width="1" opacity="1" d="M 152.5 169 L 153.5 170 L 192 170.5 L 152 171 L 152.5 169 Z " /><path fill="rgb(189,172,171)" stroke="rgb(189,172,171)" stroke-width="1" opacity="1" d="M 64.5 170 L 80 170.5 L 64.5 171 L 64.5 170 Z " /><path fill="rgb(189,172,171)" stroke="rgb(189,172,171)" stroke-width="1" opacity="1" d="M 194.5 170 L 210 170.5 L 194.5 171 L 194.5 170 Z " /><path fill="rgb(189,172,171)" stroke="rgb(189,172,171)" stroke-width="1" opacity="1" d="M 112.5 171 L 116 171.5 L 112.5 172 L 112.5 171 Z " /><path fill="rgb(189,172,171)" stroke="rgb(189,172,171)" stroke-width="1" opacity="1" d="M 50.5 172 L 50 173.5 L 49.5 175 L 49 173.5 L 50.5 172 Z " /><path fill="rgb(189,172,171)" stroke="rgb(189,172,171)" stroke-width="1" opacity="1" d="M 239.5 175 Q 241.8 174.3 241 176.5 L 239.5 175 Z " /><path fill="rgb(189,172,171)" stroke="rgb(189,172,171)" stroke-width="1" opacity="1" d="M 64.5 178 L 64 179.5 L 63.5 181 L 63 179.5 L 64.5 178 Z " /><path fill="rgb(189,172,171)" stroke="rgb(189,172,171)" stroke-width="1" opacity="1" d="M 238.5 178 L 239.5 180 L 238.5 178 Z " /><path fill="rgb(189,172,171)" stroke="rgb(189,172,171)" stroke-width="1" opacity="1" d="M 39.5 181 L 43.5 186 L 39.5 181 Z " /><path fill="rgb(189,172,171)" stroke="rgb(189,172,171)" stroke-width="1" opacity="1" d="M 236.5 184 L 237.5 186 L 236.5 184 Z " /><path fill="rgb(189,172,171)" stroke="rgb(189,172,171)" stroke-width="1" opacity="1" d="M 246.5 186 L 245.5 188 L 246.5 186 Z " /><path fill="rgb(189,172,171)" stroke="rgb(189,172,171)" stroke-width="1" opacity="1" d="M 234.5 189 L 235.5 191 L 234.5 189 Z " /><path fill="rgb(189,172,171)" stroke="rgb(189,172,171)" stroke-width="1" opacity="1" d="M 233.5 191 L 234.5 193 L 233.5 191 Z " /><path fill="rgb(189,172,171)" stroke="rgb(189,172,171)" stroke-width="1" opacity="1" d="M 232.5 193 L 233.5 195 L 232.5 193 Z " /><path fill="rgb(189,172,171)" stroke="rgb(189,172,171)" stroke-width="1" opacity="1" d="M 129.5 195 L 128.5 197 L 129.5 195 Z " /><path fill="rgb(189,172,171)" stroke="rgb(189,172,171)" stroke-width="1" opacity="1" d="M 195.5 195 L 196.5 197 L 195.5 195 Z " /><path fill="rgb(189,172,171)" stroke="rgb(189,172,171)" stroke-width="1" opacity="1" d="M 231.5 195 L 232.5 197 L 231.5 195 Z " /><path fill="rgb(189,172,171)" stroke="rgb(189,172,171)" stroke-width="1" opacity="1" d="M 98.5 196 L 99.5 198 L 98.5 196 Z " /><path fill="rgb(189,172,171)" stroke="rgb(189,172,171)" stroke-width="1" opacity="1" d="M 94.5 197 L 93.5 199 L 94.5 197 Z " /><path fill="rgb(189,172,171)" stroke="rgb(189,172,171)" stroke-width="1" opacity="1" d="M 230.5 197 Q 233.5 198.5 230.5 200 L 230.5 197 Z " /><path fill="rgb(189,172,171)" stroke="rgb(189,172,171)" stroke-width="1" opacity="1" d="M 131.5 198 L 132.5 200 L 131.5 198 Z " /><path fill="rgb(189,172,171)" stroke="rgb(189,172,171)" stroke-width="1" opacity="1" d="M 186.5 198 L 187 200.5 L 186 200.5 L 186.5 198 Z " /><path fill="rgb(189,172,171)" stroke="rgb(189,172,171)" stroke-width="1" opacity="1" d="M 197.5 198 L 198 200.5 L 197 200.5 L 197.5 198 Z " /><path fill="rgb(189,172,171)" stroke="rgb(189,172,171)" stroke-width="1" opacity="1" d="M 62.5 201 L 61.5 203 L 62.5 201 Z " /><path fill="rgb(189,172,171)" stroke="rgb(189,172,171)" stroke-width="1" opacity="1" d="M 102.5 201 L 103.5 203 L 102.5 201 Z " /><path fill="rgb(189,172,171)" stroke="rgb(189,172,171)" stroke-width="1" opacity="1" d="M 123.5 201 L 121.5 204 L 123.5 201 Z " /><path fill="rgb(189,172,171)" stroke="rgb(189,172,171)" stroke-width="1" opacity="1" d="M 221.5 201 L 220.5 203 L 221.5 201 Z " /><path fill="rgb(189,172,171)" stroke="rgb(189,172,171)" stroke-width="1" opacity="1" d="M 90.5 202 L 89.5 204 L 90.5 202 Z " /><path fill="rgb(189,172,171)" stroke="rgb(189,172,171)" stroke-width="1" opacity="1" d="M 64.5 204 L 63.5 206 L 64.5 204 Z " /><path fill="rgb(189,172,171)" stroke="rgb(189,172,171)" stroke-width="1" opacity="1" d="M 88.5 206 L 89.5 208 L 88.5 206 Z " /><path fill="rgb(189,172,171)" stroke="rgb(189,172,171)" stroke-width="1" opacity="1" d="M 151.5 206 L 152.5 208 L 151.5 206 Z " /><path fill="rgb(189,172,171)" stroke="rgb(189,172,171)" stroke-width="1" opacity="1" d="M 66.5 207 Q 69.5 208.5 66.5 210 L 66.5 207 Z " /><path fill="rgb(189,172,171)" stroke="rgb(189,172,171)" stroke-width="1" opacity="1" d="M 119.5 207 L 120 209.5 L 119 209.5 L 119.5 207 Z " /><path fill="rgb(189,172,171)" stroke="rgb(189,172,171)" stroke-width="1" opacity="1" d="M 74.5 208 L 75.5 210 L 74.5 208 Z " /><path fill="rgb(189,172,171)" stroke="rgb(189,172,171)" stroke-width="1" opacity="1" d="M 103.5 208 L 102.5 210 L 103.5 208 Z " /><path fill="rgb(189,172,171)" stroke="rgb(189,172,171)" stroke-width="1" opacity="1" d="M 164.5 209 L 161.5 213 L 164.5 209 Z " /><path fill="rgb(189,172,171)" stroke="rgb(189,172,171)" stroke-width="1" opacity="1" d="M 214.5 210 L 211.5 214 L 214.5 210 Z " /><path fill="rgb(189,172,171)" stroke="rgb(189,172,171)" stroke-width="1" opacity="1" d="M 128.5 211 L 128.5 214 Q 125.5 212.5 128.5 211 Z " /><path fill="rgb(189,172,171)" stroke="rgb(189,172,171)" stroke-width="1" opacity="1" d="M 70.5 212 L 72 213.5 L 71.5 216 L 70 214.5 L 70.5 212 Z " /><path fill="rgb(189,172,171)" stroke="rgb(189,172,171)" stroke-width="1" opacity="1" d="M 93.5 212 L 94.5 214 L 93.5 212 Z " /><path fill="rgb(189,172,171)" stroke="rgb(189,172,171)" stroke-width="1" opacity="1" d="M 190.5 212 L 189.5 214 L 190.5 212 Z " /><path fill="rgb(189,172,171)" stroke="rgb(189,172,171)" stroke-width="1" opacity="1" d="M 208.5 216 L 205.5 220 L 208.5 216 Z " /><path fill="rgb(189,172,171)" stroke="rgb(189,172,171)" stroke-width="1" opacity="1" d="M 85.5 219 L 87.5 222 L 85.5 219 Z " /><path fill="rgb(189,172,171)" stroke="rgb(189,172,171)" stroke-width="1" opacity="1" d="M 213.5 219 Q 217 221 212.5 223 L 210 222.5 L 213.5 219 Z " /><path fill="rgb(189,172,171)" stroke="rgb(189,172,171)" stroke-width="1" opacity="1" d="M 201.5 222 L 200.5 224 L 201.5 222 Z " /><path fill="rgb(189,172,171)" stroke="rgb(189,172,171)" stroke-width="1" opacity="1" d="M 90.5 223 L 91.5 225 L 90.5 223 Z " /><path fill="rgb(189,172,171)" stroke="rgb(189,172,171)" stroke-width="1" opacity="1" d="M 225.5 225 L 226 230.5 L 225 230.5 L 225.5 225 Z " /><path fill="rgb(189,172,171)" stroke="rgb(189,172,171)" stroke-width="1" opacity="1" d="M 205.5 226 L 206.5 228 L 204 227.5 L 205.5 226 Z " /><path fill="rgb(189,172,171)" stroke="rgb(189,172,171)" stroke-width="1" opacity="1" d="M 201.5 229 L 202.5 231 L 201.5 229 Z " /><path fill="rgb(189,172,171)" stroke="rgb(189,172,171)" stroke-width="1" opacity="1" d="M 31.5 233 L 32.5 235 L 31.5 233 Z " /><path fill="rgb(189,172,171)" stroke="rgb(189,172,171)" stroke-width="1" opacity="1" d="M 195.5 233 L 196.5 235 L 195.5 233 Z " /><path fill="rgb(189,172,171)" stroke="rgb(189,172,171)" stroke-width="1" opacity="1" d="M 98.5 235 L 97.5 237 L 98.5 235 Z " /><path fill="rgb(189,172,171)" stroke="rgb(189,172,171)" stroke-width="1" opacity="1" d="M 100.5 236 L 99.5 238 L 100.5 236 Z " /><path fill="rgb(189,172,171)" stroke="rgb(189,172,171)" stroke-width="1" opacity="1" d="M 102.5 237 L 101.5 239 L 102.5 237 Z " /><path fill="rgb(189,172,171)" stroke="rgb(189,172,171)" stroke-width="1" opacity="1" d="M 35.5 238 L 36.5 240 L 35.5 238 Z " /><path fill="rgb(189,172,171)" stroke="rgb(189,172,171)" stroke-width="1" opacity="1" d="M 104.5 238 L 103.5 240 L 104.5 238 Z " /><path fill="rgb(189,172,171)" stroke="rgb(189,172,171)" stroke-width="1" opacity="1" d="M 106.5 239 L 105.5 241 L 106.5 239 Z " /><path fill="rgb(189,172,171)" stroke="rgb(189,172,171)" stroke-width="1" opacity="1" d="M 159.5 240 L 162 240.5 L 159.5 241 L 159.5 240 Z " /><path fill="rgb(189,172,171)" stroke="rgb(189,172,171)" stroke-width="1" opacity="1" d="M 253.5 240 L 252.5 242 L 253.5 240 Z " /><path fill="rgb(189,172,171)" stroke="rgb(189,172,171)" stroke-width="1" opacity="1" d="M 111.5 241 L 110.5 243 L 111.5 241 Z " /><path fill="rgb(189,172,171)" stroke="rgb(189,172,171)" stroke-width="1" opacity="1" d="M 137.5 241 L 141 241.5 L 137.5 242 L 137.5 241 Z " /><path fill="rgb(189,172,171)" stroke="rgb(189,172,171)" stroke-width="1" opacity="1" d="M 150.5 241 L 154 241.5 L 150.5 242 L 150.5 241 Z " /><path fill="rgb(189,172,171)" stroke="rgb(189,172,171)" stroke-width="1" opacity="1" d="M 114.5 242 L 113.5 244 L 114.5 242 Z " /><path fill="rgb(189,172,171)" stroke="rgb(189,172,171)" stroke-width="1" opacity="1" d="M 117.5 243 L 116.5 245 L 117.5 243 Z " /><path fill="rgb(189,172,171)" stroke="rgb(189,172,171)" stroke-width="1" opacity="1" d="M 168.5 244 L 171 245.5 L 169.5 245 L 168.5 244 Z " /><path fill="rgb(189,172,171)" stroke="rgb(189,172,171)" stroke-width="1" opacity="1" d="M 164.5 245 L 167 246.5 L 165.5 246 L 164.5 245 Z " /><path fill="rgb(189,172,171)" stroke="rgb(189,172,171)" stroke-width="1" opacity="1" d="M 158.5 246 L 161 247.5 L 159.5 247 L 158.5 246 Z " /><path fill="rgb(189,172,171)" stroke="rgb(189,172,171)" stroke-width="1" opacity="1" d="M 145.5 247 L 153 248.5 L 147.5 249 L 145.5 247 Z " /><path fill="rgb(189,172,171)" stroke="rgb(189,172,171)" stroke-width="1" opacity="1" d="M 136.5 254 L 155 254.5 L 136.5 255 L 136.5 254 Z " /><path fill="rgb(189,172,171)" stroke="rgb(189,172,171)" stroke-width="1" opacity="1" d="M 127.5 255 L 130 255.5 L 127.5 256 L 127.5 255 Z " /><path fill="rgb(189,172,171)" stroke="rgb(189,172,171)" stroke-width="1" opacity="1" d="M 161.5 255 L 164 255.5 L 161.5 256 L 161.5 255 Z " /><path fill="rgb(189,172,171)" stroke="rgb(189,172,171)" stroke-width="1" opacity="1" d="M 174.5 259 L 175.5 261 L 174.5 259 Z " /><path fill="rgb(189,172,171)" stroke="rgb(189,172,171)" stroke-width="1" opacity="1" d="M 133.5 290 L 136 290.5 L 133.5 291 L 133.5 290 Z " /><path fill="rgb(189,172,171)" stroke="rgb(189,172,171)" stroke-width="1" opacity="1" d="M 154.5 290 L 158 290.5 L 154.5 291 L 154.5 290 Z " /><path fill="rgb(164,39,43)" stroke="rgb(164,39,43)" stroke-width="1" opacity="1" d="M 175.5 40 L 174.5 42 L 175.5 40 Z " /><path fill="rgb(164,39,43)" stroke="rgb(164,39,43)" stroke-width="1" opacity="1" d="M 130 65 L 132 65 Q 130.9 67.7 133.5 67 Q 134.8 64.8 136 67.5 L 136 81.5 L 134 82 L 134 69.5 L 132 69 L 132 82.5 L 130 83 L 130 65 Z " /><path fill="rgb(164,39,43)" stroke="rgb(164,39,43)" stroke-width="1" opacity="1" d="M 140.5 65 L 144 66.5 L 144 80.5 L 141.5 81 L 139.5 82 Q 136.3 80.3 138 73.5 L 142 68 L 138 70 Q 137.3 66.2 140.5 65 Z M 142 73 L 140 75 Q 138 80 142 79 L 142 73 Z " /><path fill="rgb(164,39,43)" stroke="rgb(164,39,43)" stroke-width="1" opacity="1" d="M 146 65 L 149.5 66 L 153.5 66 L 156 66.5 L 156 82 L 154 81.5 L 154 68.5 L 152 69.5 L 151.5 82 L 150 80.5 L 150 68 L 148 68.5 L 148 80.5 L 146 81 L 146 65 Z " /><path fill="rgb(164,39,43)" stroke="rgb(164,39,43)" stroke-width="1" opacity="1" d="M 124.5 66 L 128 67.5 Q 129 72 126.5 73 L 125 72.5 L 126 70 L 124 70.5 L 124 81.5 L 125 81.5 L 126 76 Q 130 74.6 128 81.5 L 127 84 L 122.5 85 L 121 83.5 L 121 70.5 L 124.5 66 Z " /><path fill="rgb(164,39,43)" stroke="rgb(164,39,43)" stroke-width="1" opacity="1" d="M 158 67 L 161.5 68 Q 162.8 65.7 164 68.5 L 165 70.5 L 165 81.5 L 164 84 L 161.5 83 L 161 85 L 158 83.5 L 158 67 Z M 162 70 L 161 81 L 163 80 L 163 72 L 162 70 Z " /><path fill="rgb(164,39,43)" stroke="rgb(164,39,43)" stroke-width="1" opacity="1" d="M 167.5 69 L 169 70.5 L 169 85 L 167 84.5 L 167.5 69 Z " /><path fill="rgb(164,39,43)" stroke="rgb(164,39,43)" stroke-width="1" opacity="1" d="M 113.5 71 L 115 71.5 L 115 88 L 109 90 Q 107 87 108 79.5 L 110.5 74 Q 112.8 74.8 112 72.5 L 113.5 71 Z M 112 76 L 111 87 L 113 86 L 113 78 L 112 76 Z " /><path fill="rgb(164,39,43)" stroke="rgb(164,39,43)" stroke-width="1" opacity="1" d="M 172.5 71 L 177 73.5 L 177 86.5 L 173.5 87 L 171 83.5 L 171 72.5 L 172.5 71 Z M 173 74 L 173 84 L 175 85 L 175 75 L 173 74 Z " /><path fill="rgb(164,39,43)" stroke="rgb(164,39,43)" stroke-width="1" opacity="1" d="M 179 74 L 185 76 Q 187.2 81.2 186 91.5 L 183 89.5 L 182.5 78 L 181.5 90 L 179 89 L 179 74 Z " /><path fill="rgb(164,39,43)" stroke="rgb(164,39,43)" stroke-width="1" opacity="1" d="M 104 75 L 106 75.5 L 106 92 L 104 91.5 L 104 75 Z " /><path fill="rgb(164,39,43)" stroke="rgb(164,39,43)" stroke-width="1" opacity="1" d="M 101.5 79 L 102 85.5 L 100 86.5 L 99.5 83 L 98 84.5 L 98 95.5 L 96.5 97 L 96 82 L 101.5 79 Z " /><path fill="rgb(164,39,43)" stroke="rgb(164,39,43)" stroke-width="1" opacity="1" d="M 188 79 L 193 81.5 L 194 84.5 L 192 85 L 190.5 82 L 190 84.5 L 194 90.5 L 194 93.5 L 191.5 95 L 188 92.5 L 187 87.5 L 188.5 87 L 190 87.5 Q 186.8 85 188 79 Z M 191 88 L 190 92 L 191 92 L 191 88 Z " /><path fill="rgb(164,39,43)" stroke="rgb(164,39,43)" stroke-width="1" opacity="1" d="M 195.5 81 L 198 82.5 L 199.5 86 Q 201.8 85.3 201 87.5 L 202 88.5 L 202 100.5 L 200 99.5 L 200 88.5 L 198.5 87 L 198 98 L 195 96.5 L 196 95.5 L 196 82.5 L 195.5 81 Z " /><path fill="rgb(164,39,43)" stroke="rgb(164,39,43)" stroke-width="1" opacity="1" d="M 82.5 82 L 77.5 88 L 82.5 82 Z " /><path fill="rgb(164,39,43)" stroke="rgb(164,39,43)" stroke-width="1" opacity="1" d="M 91.5 85 L 94 85.5 L 94 97.5 L 89.5 101 L 88 99.5 L 88 89.5 L 91.5 85 Z M 90 88 L 90 97 L 92 97 L 92 89 L 90 88 Z " /><path fill="rgb(164,39,43)" stroke="rgb(164,39,43)" stroke-width="1" opacity="1" d="M 85.5 87 L 86 99.5 L 82.5 105 L 80 104 Q 81.5 107.8 78.5 107 L 76 108 Q 74.2 104.2 75 96.5 L 78 94.5 L 78.5 104 Q 81.4 99.9 80 91.5 L 81.5 90 L 82 101 L 84 100.5 L 84 88.5 L 85.5 87 Z " /><path fill="rgb(164,39,43)" stroke="rgb(164,39,43)" stroke-width="1" opacity="1" d="M 204.5 87 L 206 88.5 L 206 103 L 204 102.5 L 204.5 87 Z " /><path fill="rgb(164,39,43)" stroke="rgb(164,39,43)" stroke-width="1" opacity="1" d="M 208.5 93 L 214 97.5 L 215 109 L 211.5 107 L 209.5 108 L 208 106.5 L 208.5 93 Z M 212 97 L 211 106 L 212 106 L 212 97 Z " /><path fill="rgb(164,39,43)" stroke="rgb(164,39,43)" stroke-width="1" opacity="1" d="M 152.5 96 L 153 99 L 157 99.5 L 153.5 100 Q 151 99 152.5 96 Z " /><path fill="rgb(164,39,43)" stroke="rgb(164,39,43)" stroke-width="1" opacity="1" d="M 152.5 104 L 153 111.5 L 152 111.5 L 152.5 104 Z " /><path fill="rgb(164,39,43)" stroke="rgb(164,39,43)" stroke-width="1" opacity="1" d="M 65.5 118 L 225 118.5 L 65.5 119 L 65.5 118 Z " /><path fill="rgb(164,39,43)" stroke="rgb(164,39,43)" stroke-width="1" opacity="1" d="M 110 129 L 112 129.5 L 110 130.5 L 110 129 Z " /><path fill="rgb(164,39,43)" stroke="rgb(164,39,43)" stroke-width="1" opacity="1" d="M 132.5 130 L 135 130.5 L 132.5 131 L 132.5 130 Z " /><path fill="rgb(164,39,43)" stroke="rgb(164,39,43)" stroke-width="1" opacity="1" d="M 212.5 131 L 213.5 133 L 212.5 131 Z " /><path fill="rgb(164,39,43)" stroke="rgb(164,39,43)" stroke-width="1" opacity="1" d="M 85.5 137 L 86 142.5 L 85 142.5 L 85.5 137 Z " /><path fill="rgb(164,39,43)" stroke="rgb(164,39,43)" stroke-width="1" opacity="1" d="M 107.5 138 L 108 141.5 L 107 141.5 L 107.5 138 Z " /><path fill="rgb(164,39,43)" stroke="rgb(164,39,43)" stroke-width="1" opacity="1" d="M 119.5 138 L 120 161.5 L 119 161.5 L 119.5 138 Z " /><path fill="rgb(164,39,43)" stroke="rgb(164,39,43)" stroke-width="1" opacity="1" d="M 244.5 144 L 245 149.5 L 244 149.5 L 244.5 144 Z " /><path fill="rgb(164,39,43)" stroke="rgb(164,39,43)" stroke-width="1" opacity="1" d="M 77.5 150 L 81 150.5 L 76.5 152 L 77.5 150 Z " /><path fill="rgb(164,39,43)" stroke="rgb(164,39,43)" stroke-width="1" opacity="1" d="M 107.5 158 L 108 161.5 L 107 161.5 L 107.5 158 Z " /><path fill="rgb(164,39,43)" stroke="rgb(164,39,43)" stroke-width="1" opacity="1" d="M 191.5 163 L 192 167.5 L 191 167.5 L 191.5 163 Z " /><path fill="rgb(164,39,43)" stroke="rgb(164,39,43)" stroke-width="1" opacity="1" d="M 226.5 180 L 225.5 182 L 226.5 180 Z " /><path fill="rgb(164,39,43)" stroke="rgb(164,39,43)" stroke-width="1" opacity="1" d="M 96.5 195 L 105 206.5 L 96.5 216 L 89 206.5 L 89 204.5 L 96.5 195 Z " /><path fill="rgb(164,39,43)" stroke="rgb(164,39,43)" stroke-width="1" opacity="1" d="M 153.5 195 L 161 199 L 162.5 196 Q 168.8 194.8 170 198.5 L 169 204.5 L 159.5 214 L 155.5 209 L 151 205.5 L 150 197.5 L 153.5 195 Z " /><path fill="rgb(164,39,43)" stroke="rgb(164,39,43)" stroke-width="1" opacity="1" d="M 135.5 202 L 136.5 204 L 135.5 202 Z " /><path fill="rgb(164,39,43)" stroke="rgb(164,39,43)" stroke-width="1" opacity="1" d="M 192.5 213 L 191.5 215 L 192.5 213 Z " /><path fill="rgb(164,39,43)" stroke="rgb(164,39,43)" stroke-width="1" opacity="1" d="M 211.5 214 L 210.5 216 L 211.5 214 Z " /><path fill="rgb(164,39,43)" stroke="rgb(164,39,43)" stroke-width="1" opacity="1" d="M 72.5 217 L 74.5 220 L 72.5 217 Z " /><path fill="rgb(164,39,43)" stroke="rgb(164,39,43)" stroke-width="1" opacity="1" d="M 225.5 231 L 226.5 233 L 225.5 231 Z " /><path fill="rgb(164,39,43)" stroke="rgb(164,39,43)" stroke-width="1" opacity="1" d="M 95.5 234 L 97 236.5 L 95 235.5 L 95.5 234 Z " /><path fill="rgb(164,39,43)" stroke="rgb(164,39,43)" stroke-width="1" opacity="1" d="M 142.5 291 L 148 291.5 L 142.5 292 L 142.5 291 Z " /></svg>